<svg width="187" height="189" viewBox="0 0 187 189" fill="none" xmlns="http://www.w3.org/2000/svg">
<path fill-rule="evenodd" clip-rule="evenodd" d="M162.771 57.9227C162.771 54.8259 165.164 52.3094 168.12 51.3877C178.813 48.0545 186.575 38.0773 186.575 26.2873C186.575 11.7692 174.805 0 160.287 0C147.95 0 137.598 8.49873 134.766 19.961C133.982 23.1359 131.385 25.7907 128.115 25.7907H6C2.68629 25.7907 0 28.477 0 31.7907V182.562C0 185.876 2.68628 188.562 5.99999 188.562H156.771C160.085 188.562 162.771 185.876 162.771 182.562V57.9227Z" fill="white"/>
<path d="M165.848 21.7299C166.186 21.7299 166.518 21.7531 166.848 21.7868C165.95 17.8934 161.48 15 156.378 15C150.673 15 146 18.6215 146 23.2197C146 25.8735 147.555 28.0531 150.153 29.7436L149.115 32.6517L152.742 30.957C154.041 31.1959 155.082 31.4423 156.378 31.4423C156.703 31.4423 157.026 31.4274 157.346 31.4035C157.143 30.7578 157.026 30.0807 157.026 29.3789C157.026 25.1567 160.919 21.7299 165.848 21.7299ZM160.269 19.1091C161.051 19.1091 161.568 19.5885 161.568 20.3158C161.568 21.0401 161.051 21.5254 160.269 21.5254C159.491 21.5254 158.711 21.0401 158.711 20.3158C158.711 19.5885 159.491 19.1091 160.269 19.1091ZM153.007 21.5254C152.228 21.5254 151.444 21.04 151.444 20.3157C151.444 19.5884 152.228 19.1091 153.007 19.1091C153.784 19.1091 154.302 19.5884 154.302 20.3157C154.302 21.0401 153.784 21.5254 153.007 21.5254ZM175.32 29.2627C175.32 25.3986 171.169 22.249 166.506 22.249C161.568 22.249 157.68 25.3986 157.68 29.2627C157.68 33.1325 161.568 36.2754 166.506 36.2754C167.539 36.2754 168.581 36.0342 169.619 35.7915L172.466 37.2431L171.685 34.8283C173.769 33.3722 175.32 31.4423 175.32 29.2627ZM163.644 28.0531C163.127 28.0531 162.606 27.5745 162.606 27.0861C162.606 26.6045 163.127 26.1199 163.644 26.1199C164.429 26.1199 164.943 26.6045 164.943 27.0861C164.943 27.5745 164.429 28.0531 163.644 28.0531ZM169.352 28.0531C168.839 28.0531 168.321 27.5745 168.321 27.0861C168.321 26.6045 168.839 26.1199 169.352 26.1199C170.13 26.1199 170.65 26.6045 170.65 27.0861C170.65 27.5745 170.13 28.0531 169.352 28.0531Z" fill="#12A3FF"/>
</svg>
