<svg width="12" height="12" viewBox="0 0 12 12" fill="none" xmlns="http://www.w3.org/2000/svg">
<path d="M5.9971 11.9942C5.17658 11.9942 4.40445 11.8374 3.6807 11.5239C2.95694 11.2143 2.31834 10.7828 1.76488 10.2293C1.21529 9.67586 0.783745 9.03725 0.470247 8.3135C0.156749 7.58974 0 6.81761 0 5.9971C0 5.17658 0.156749 4.40445 0.470247 3.6807C0.783745 2.95694 1.21529 2.32027 1.76488 1.77068C2.31834 1.21722 2.95501 0.783745 3.67489 0.470247C4.39865 0.156749 5.17078 0 5.99129 0C6.81567 0 7.58974 0.156749 8.3135 0.470247C9.03725 0.783745 9.67586 1.21722 10.2293 1.77068C10.7828 2.32027 11.2163 2.95694 11.5298 3.6807C11.8433 4.40445 12 5.17658 12 5.9971C12 6.81761 11.8433 7.58974 11.5298 8.3135C11.2163 9.03725 10.7828 9.67586 10.2293 10.2293C9.67586 10.7828 9.03725 11.2143 8.3135 11.5239C7.58974 11.8374 6.81761 11.9942 5.9971 11.9942ZM3.4717 8.65022C3.59942 8.65022 3.70585 8.60764 3.791 8.5225C3.87615 8.43735 3.91872 8.33091 3.91872 8.20319V3.791C3.91872 3.66328 3.87615 3.55685 3.791 3.4717C3.70585 3.38268 3.59942 3.33817 3.4717 3.33817C3.34011 3.33817 3.23174 3.38268 3.14659 3.4717C3.06144 3.55685 3.01887 3.66328 3.01887 3.791V8.20319C3.01887 8.33091 3.06144 8.43735 3.14659 8.5225C3.23174 8.60764 3.34011 8.65022 3.4717 8.65022ZM9.67199 5.9971C9.67199 5.86938 9.62748 5.76294 9.53846 5.67779C9.45331 5.59265 9.34107 5.55007 9.20174 5.55007H6.70537L5.6836 5.60813L6.76343 4.65602L7.14078 4.29028C7.18723 4.24383 7.22013 4.19352 7.23948 4.13933C7.2627 4.08128 7.27431 4.01935 7.27431 3.95356C7.27431 3.82583 7.2298 3.72134 7.14078 3.64006C7.05564 3.55878 6.95114 3.51814 6.82729 3.51814C6.69569 3.51814 6.58539 3.56459 6.49637 3.65747L4.49347 5.66038C4.44702 5.70682 4.41026 5.75907 4.38316 5.81713C4.35607 5.87518 4.34253 5.93517 4.34253 5.9971C4.34253 6.06676 4.35414 6.13062 4.37736 6.18868C4.40445 6.24286 4.44315 6.29318 4.49347 6.33962L6.49057 8.32511C6.53314 8.37155 6.58539 8.40832 6.64732 8.43541C6.70924 8.46251 6.76923 8.47605 6.82729 8.47605C6.95888 8.47605 7.06531 8.43541 7.14659 8.35414C7.23174 8.26899 7.27431 8.16255 7.27431 8.03483C7.27431 7.96517 7.2627 7.90324 7.23948 7.84906C7.22013 7.79487 7.18723 7.74649 7.14078 7.70392L6.75762 7.34978L5.67779 6.39187L6.70537 6.46734H9.20174C9.34107 6.46734 9.45331 6.42477 9.53846 6.33962C9.62748 6.25448 9.67199 6.1403 9.67199 5.9971Z" fill="#007AFF"/>
</svg>
