<svg width="12" height="12" viewBox="0 0 12 12" fill="none" xmlns="http://www.w3.org/2000/svg">
<path d="M5.80054 11.6011C5.00692 11.6011 4.26009 11.4495 3.56006 11.1462C2.86003 10.8468 2.24235 10.4294 1.70703 9.89404C1.17546 9.35872 0.758057 8.74105 0.454834 8.04102C0.151611 7.34098 0 6.59416 0 5.80054C0 5.00692 0.151611 4.26009 0.454834 3.56006C0.758057 2.86003 1.17546 2.24422 1.70703 1.71265C2.24235 1.17733 2.85815 0.758057 3.55444 0.454834C4.25448 0.151611 5.0013 0 5.79492 0C6.59229 0 7.34098 0.151611 8.04102 0.454834C8.74105 0.758057 9.35872 1.17733 9.89404 1.71265C10.4294 2.24422 10.8486 2.86003 11.1519 3.56006C11.4551 4.26009 11.6067 5.00692 11.6067 5.80054C11.6067 6.59416 11.4551 7.34098 11.1519 8.04102C10.8486 8.74105 10.4294 9.35872 9.89404 9.89404C9.35872 10.4294 8.74105 10.8468 8.04102 11.1462C7.34098 11.4495 6.59416 11.6011 5.80054 11.6011ZM5.80054 10.4556C6.44816 10.4556 7.05273 10.3358 7.61426 10.0962C8.17578 9.85661 8.66992 9.52344 9.09668 9.09668C9.52344 8.66992 9.85661 8.17578 10.0962 7.61426C10.3358 7.05273 10.4556 6.44816 10.4556 5.80054C10.4556 5.15666 10.3358 4.55396 10.0962 3.99243C9.85661 3.42716 9.52344 2.93115 9.09668 2.50439C8.66992 2.07764 8.17391 1.74447 7.60864 1.50488C7.04712 1.2653 6.44255 1.14551 5.79492 1.14551C5.15104 1.14551 4.54647 1.2653 3.9812 1.50488C3.41968 1.74447 2.92741 2.07764 2.50439 2.50439C2.08138 2.93115 1.75008 3.42716 1.5105 3.99243C1.27091 4.55396 1.15112 5.15666 1.15112 5.80054C1.15112 6.44816 1.27091 7.05273 1.5105 7.61426C1.75008 8.17578 2.08138 8.66992 2.50439 9.09668C2.93115 9.52344 3.42529 9.85661 3.98682 10.0962C4.55208 10.3358 5.15666 10.4556 5.80054 10.4556ZM2.30225 5.28955C2.30225 4.81787 2.45947 4.43978 2.77393 4.15527C3.08838 3.86702 3.50578 3.7229 4.02612 3.7229H6.11499V3.06592C6.11499 2.96484 6.14307 2.88623 6.19922 2.83008C6.25911 2.77018 6.33773 2.74023 6.43506 2.74023C6.51742 2.74023 6.5979 2.77018 6.67651 2.83008L7.92871 3.88013C8.01107 3.94377 8.05225 4.02425 8.05225 4.12158C8.05225 4.21517 8.01107 4.29753 7.92871 4.36865L6.67651 5.40747C6.5979 5.46737 6.51742 5.49731 6.43506 5.49731C6.33773 5.49731 6.25911 5.46737 6.19922 5.40747C6.14307 5.34757 6.11499 5.26709 6.11499 5.16602V4.50342H3.96436C3.70605 4.50342 3.49642 4.58016 3.33545 4.73364C3.17448 4.88338 3.09399 5.08366 3.09399 5.33447V5.6377C3.09399 5.74626 3.05469 5.83797 2.97607 5.91284C2.9012 5.98771 2.80762 6.02515 2.69531 6.02515C2.58675 6.02515 2.49316 5.98771 2.41455 5.91284C2.33968 5.83797 2.30225 5.74626 2.30225 5.6377V5.28955ZM9.28198 6.32275C9.28198 6.80192 9.12476 7.18563 8.8103 7.47388C8.49585 7.75838 8.07658 7.90063 7.55249 7.90063H5.46924V8.55762C5.46924 8.65495 5.43929 8.73356 5.37939 8.79346C5.32324 8.85335 5.2465 8.8833 5.14917 8.8833C5.06307 8.8833 4.98258 8.85335 4.90771 8.79346L3.6499 7.74902C3.5638 7.68164 3.52075 7.60116 3.52075 7.50757C3.5245 7.41024 3.56755 7.32601 3.6499 7.25488L4.90771 6.21606C4.98258 6.15991 5.06307 6.13184 5.14917 6.13184C5.2465 6.13184 5.32324 6.16178 5.37939 6.22168C5.43929 6.27783 5.46924 6.35645 5.46924 6.45752V7.1145H7.60864C7.87443 7.1145 8.08594 7.03963 8.24316 6.88989C8.40413 6.74015 8.48462 6.538 8.48462 6.28345V5.98022C8.48462 5.87166 8.52205 5.77995 8.59692 5.70508C8.67554 5.63021 8.771 5.59277 8.8833 5.59277C8.99561 5.59277 9.08919 5.63021 9.16406 5.70508C9.24268 5.77995 9.28198 5.87166 9.28198 5.98022V6.32275Z"  fill="white" fill-opacity="0.7"/>
</svg>
