<svg width="12" height="12" viewBox="0 0 12 12" fill="none" xmlns="http://www.w3.org/2000/svg">
<path d="M5.80054 11.6011C5.00692 11.6011 4.26009 11.4495 3.56006 11.1462C2.86003 10.8468 2.24235 10.4294 1.70703 9.89404C1.17546 9.35872 0.758057 8.74105 0.454834 8.04102C0.151611 7.34098 0 6.59416 0 5.80054C0 5.00692 0.151611 4.26009 0.454834 3.56006C0.758057 2.86003 1.17546 2.24422 1.70703 1.71265C2.24235 1.17733 2.85815 0.758057 3.55444 0.454834C4.25448 0.151611 5.0013 0 5.79492 0C6.59229 0 7.34098 0.151611 8.04102 0.454834C8.74105 0.758057 9.35872 1.17733 9.89404 1.71265C10.4294 2.24422 10.8486 2.86003 11.1519 3.56006C11.4551 4.26009 11.6067 5.00692 11.6067 5.80054C11.6067 6.59416 11.4551 7.34098 11.1519 8.04102C10.8486 8.74105 10.4294 9.35872 9.89404 9.89404C9.35872 10.4294 8.74105 10.8468 8.04102 11.1462C7.34098 11.4495 6.59416 11.6011 5.80054 11.6011ZM2.16748 5.27271V5.63208C2.16748 5.74438 2.20679 5.83984 2.2854 5.91846C2.36776 5.99707 2.46509 6.03638 2.57739 6.03638C2.69344 6.03638 2.79264 5.99707 2.875 5.91846C2.95736 5.83984 2.99854 5.74438 2.99854 5.63208V5.31201C2.99854 5.05371 3.08089 4.84782 3.24561 4.69434C3.41032 4.53711 3.62744 4.4585 3.89697 4.4585H6.13184V5.13794C6.13184 5.2465 6.15991 5.33073 6.21606 5.39062C6.27596 5.45052 6.36019 5.48047 6.46875 5.48047C6.56608 5.48047 6.64844 5.45239 6.71582 5.39624L8.01294 4.3125C8.10278 4.24137 8.14771 4.15715 8.14771 4.05981C8.14771 3.95874 8.10278 3.87264 8.01294 3.80151L6.71582 2.71216C6.64095 2.64852 6.55859 2.6167 6.46875 2.6167C6.36019 2.6167 6.27596 2.64852 6.21606 2.71216C6.15991 2.77205 6.13184 2.85254 6.13184 2.95361V3.63867H3.95874C3.41593 3.63867 2.98169 3.78841 2.65601 4.08789C2.33032 4.38363 2.16748 4.77856 2.16748 5.27271ZM9.42236 6.34521V5.99146C9.42236 5.87541 9.38306 5.77808 9.30444 5.69946C9.22583 5.62085 9.1285 5.58154 9.01245 5.58154C8.89266 5.58154 8.79346 5.62085 8.71484 5.69946C8.63623 5.77808 8.59692 5.87541 8.59692 5.99146V6.30591C8.59692 6.56795 8.5127 6.77759 8.34424 6.93481C8.17952 7.0883 7.9624 7.16504 7.69287 7.16504H5.46362V6.47998C5.46362 6.37891 5.4318 6.29842 5.36816 6.23853C5.30827 6.17489 5.22778 6.14307 5.12671 6.14307C5.03312 6.14307 4.94889 6.17301 4.87402 6.23291L3.57129 7.31104C3.48519 7.38216 3.44214 7.46826 3.44214 7.56934C3.44214 7.67041 3.48519 7.75651 3.57129 7.82764L4.87402 8.91138C4.95264 8.97502 5.03687 9.00684 5.12671 9.00684C5.22778 9.00684 5.30827 8.97689 5.36816 8.91699C5.4318 8.85335 5.46362 8.76912 5.46362 8.66431V7.97925H7.62549C8.16829 7.97925 8.60254 7.83138 8.92822 7.53564C9.25765 7.23991 9.42236 6.8431 9.42236 6.34521Z" fill="#007AFF"/>
</svg>
