<svg width="12" height="12" viewBox="0 0 12 12" fill="none" xmlns="http://www.w3.org/2000/svg">
<path d="M5.80054 11.6011C5.00692 11.6011 4.26009 11.4495 3.56006 11.1462C2.86003 10.8468 2.24235 10.4294 1.70703 9.89404C1.17546 9.35872 0.758057 8.74105 0.454834 8.04102C0.151611 7.34098 0 6.59416 0 5.80054C0 5.00692 0.151611 4.26009 0.454834 3.56006C0.758057 2.86003 1.17546 2.24422 1.70703 1.71265C2.24235 1.17733 2.85815 0.758057 3.55444 0.454834C4.25448 0.151611 5.0013 0 5.79492 0C6.59229 0 7.34098 0.151611 8.04102 0.454834C8.74105 0.758057 9.35872 1.17733 9.89404 1.71265C10.4294 2.24422 10.8486 2.86003 11.1519 3.56006C11.4551 4.26009 11.6067 5.00692 11.6067 5.80054C11.6067 6.59416 11.4551 7.34098 11.1519 8.04102C10.8486 8.74105 10.4294 9.35872 9.89404 9.89404C9.35872 10.4294 8.74105 10.8468 8.04102 11.1462C7.34098 11.4495 6.59416 11.6011 5.80054 11.6011ZM4.78979 8.09155L8.02979 6.18237C8.12337 6.12248 8.18514 6.04574 8.21509 5.95215C8.24878 5.85482 8.24878 5.75749 8.21509 5.66016C8.18514 5.56283 8.12337 5.48796 8.02979 5.43555L4.78979 3.51514C4.68872 3.45524 4.5839 3.43091 4.47534 3.44214C4.37052 3.45337 4.28255 3.49268 4.21143 3.56006C4.1403 3.6237 4.10474 3.71354 4.10474 3.82959V7.7771C4.10474 7.89315 4.1403 7.98673 4.21143 8.05786C4.28255 8.12524 4.36865 8.16455 4.46973 8.17578C4.57454 8.18327 4.68123 8.15519 4.78979 8.09155Z" fill="#12A3FF"/>
</svg>
