<svg width="12" height="12" viewBox="0 0 12 12" fill="none" xmlns="http://www.w3.org/2000/svg">
<path d="M5.80054 11.6011C5.00692 11.6011 4.26009 11.4495 3.56006 11.1462C2.86003 10.8468 2.24235 10.4294 1.70703 9.89404C1.17546 9.35872 0.758057 8.74105 0.454834 8.04102C0.151611 7.34098 0 6.59416 0 5.80054C0 5.00692 0.151611 4.26009 0.454834 3.56006C0.758057 2.86003 1.17546 2.24422 1.70703 1.71265C2.24235 1.17733 2.85815 0.758057 3.55444 0.454834C4.25448 0.151611 5.0013 0 5.79492 0C6.59229 0 7.34098 0.151611 8.04102 0.454834C8.74105 0.758057 9.35872 1.17733 9.89404 1.71265C10.4294 2.24422 10.8486 2.86003 11.1519 3.56006C11.4551 4.26009 11.6067 5.00692 11.6067 5.80054C11.6067 6.59416 11.4551 7.34098 11.1519 8.04102C10.8486 8.74105 10.4294 9.35872 9.89404 9.89404C9.35872 10.4294 8.74105 10.8468 8.04102 11.1462C7.34098 11.4495 6.59416 11.6011 5.80054 11.6011ZM5.80054 10.4556C6.44816 10.4556 7.05273 10.3358 7.61426 10.0962C8.17578 9.85661 8.66992 9.52344 9.09668 9.09668C9.52344 8.66992 9.85661 8.17578 10.0962 7.61426C10.3358 7.05273 10.4556 6.44816 10.4556 5.80054C10.4556 5.15666 10.3358 4.55396 10.0962 3.99243C9.85661 3.42716 9.52344 2.93115 9.09668 2.50439C8.66992 2.07764 8.17391 1.74447 7.60864 1.50488C7.04712 1.2653 6.44255 1.14551 5.79492 1.14551C5.15104 1.14551 4.54647 1.2653 3.9812 1.50488C3.41968 1.74447 2.92741 2.07764 2.50439 2.50439C2.08138 2.93115 1.75008 3.42716 1.5105 3.99243C1.27091 4.55396 1.15112 5.15666 1.15112 5.80054C1.15112 6.44816 1.27091 7.05273 1.5105 7.61426C1.75008 8.17578 2.08138 8.66992 2.50439 9.09668C2.93115 9.52344 3.42529 9.85661 3.98682 10.0962C4.55208 10.3358 5.15666 10.4556 5.80054 10.4556ZM4.81226 8.00171C4.71118 8.0616 4.61011 8.08781 4.50903 8.08032C4.4117 8.06909 4.32935 8.03166 4.26196 7.96802C4.19458 7.90063 4.16089 7.81266 4.16089 7.7041V3.90259C4.16089 3.79403 4.19458 3.70793 4.26196 3.64429C4.32935 3.58065 4.41357 3.54508 4.51465 3.5376C4.61947 3.52637 4.71867 3.54883 4.81226 3.60498L7.93433 5.45239C8.02417 5.5048 8.08407 5.5778 8.11401 5.67139C8.14396 5.76123 8.14396 5.85295 8.11401 5.94653C8.08781 6.03638 8.02791 6.10938 7.93433 6.16553L4.81226 8.00171Z" fill="#606266"/>
</svg>
