<svg width="12" height="10" viewBox="0 0 12 10" fill="none" xmlns="http://www.w3.org/2000/svg">
<path d="M2.13255 7.72478C1.86914 7.72478 1.73744 7.58801 1.73744 7.31448V2.14774C1.73744 1.87421 1.86914 1.73744 2.13255 1.73744H9.86745C10.1342 1.73744 10.2676 1.87421 10.2676 2.14774V7.31448C10.2676 7.58801 10.1342 7.72478 9.86745 7.72478H2.13255ZM1.66146 9.45716C1.11439 9.45716 0.700718 9.3187 0.420431 9.04179C0.140144 8.76488 0 8.35627 0 7.81596V1.64626C0 1.10595 0.140144 0.697341 0.420431 0.420431C0.700718 0.140144 1.11439 0 1.66146 0H10.3335C10.8839 0 11.2993 0.140144 11.5796 0.420431C11.8599 0.697341 12 1.10595 12 1.64626V7.81596C12 8.35627 11.8599 8.76488 11.5796 9.04179C11.2993 9.3187 10.8839 9.45716 10.3335 9.45716H1.66146ZM1.72225 8.46433H10.2778C10.5108 8.46433 10.6897 8.40355 10.8147 8.28198C10.9396 8.15703 11.0021 7.97298 11.0021 7.72984V1.73238C11.0021 1.48924 10.9396 1.30688 10.8147 1.18531C10.6897 1.06036 10.5108 0.997889 10.2778 0.997889H1.72225C1.48586 0.997889 1.30519 1.06036 1.18024 1.18531C1.05867 1.30688 0.997889 1.48924 0.997889 1.73238V7.72984C0.997889 7.97298 1.05867 8.15703 1.18024 8.28198C1.30519 8.40355 1.48586 8.46433 1.72225 8.46433Z" fill="#606266"/>
</svg>
