<svg width="12" height="10" viewBox="0 0 12 10" fill="none" xmlns="http://www.w3.org/2000/svg">
<path d="M0.668637 7.72478C0.617982 7.72478 0.57577 7.70789 0.542001 7.67412C0.508231 7.64036 0.491347 7.59983 0.491347 7.55255V1.9046C0.491347 1.85732 0.506543 1.81849 0.536935 1.7881C0.570705 1.75433 0.612917 1.73744 0.663571 1.73744H7.22837C7.49177 1.73744 7.62347 1.87421 7.62347 2.14774V7.31448C7.62347 7.58801 7.49177 7.72478 7.22837 7.72478H0.668637ZM8.76319 7.72478C8.49979 7.72478 8.36809 7.58801 8.36809 7.31448V2.14774C8.36809 1.87421 8.49979 1.73744 8.76319 1.73744H11.3567C11.4073 1.73744 11.4479 1.75433 11.4783 1.7881C11.5087 1.81849 11.5238 1.85732 11.5238 1.9046V7.55255C11.5238 7.59983 11.5087 7.64036 11.4783 7.67412C11.4479 7.70789 11.4073 7.72478 11.3567 7.72478H8.76319ZM1.66146 9.45716C1.11439 9.45716 0.700718 9.3187 0.420431 9.04179C0.140144 8.76488 0 8.35627 0 7.81596V1.64626C0 1.10595 0.140144 0.697341 0.420431 0.420431C0.700718 0.140144 1.11439 0 1.66146 0H10.3335C10.8839 0 11.2993 0.140144 11.5796 0.420431C11.8599 0.697341 12 1.10595 12 1.64626V7.81596C12 8.35627 11.8599 8.76488 11.5796 9.04179C11.2993 9.3187 10.8839 9.45716 10.3335 9.45716H1.66146ZM1.72225 8.46433H10.2778C10.5108 8.46433 10.6897 8.40355 10.8147 8.28198C10.9396 8.15703 11.0021 7.97298 11.0021 7.72984V1.73238C11.0021 1.48924 10.9396 1.30688 10.8147 1.18531C10.6897 1.06036 10.5108 0.997889 10.2778 0.997889H1.72225C1.48586 0.997889 1.30519 1.06036 1.18024 1.18531C1.05867 1.30688 0.997889 1.48924 0.997889 1.73238V7.72984C0.997889 7.97298 1.05867 8.15703 1.18024 8.28198C1.30519 8.40355 1.48586 8.46433 1.72225 8.46433Z" fill="#606266"/>
</svg>
