<svg width="12" height="12" viewBox="0 0 12 12" fill="none" xmlns="http://www.w3.org/2000/svg">
<path d="M5.80078 11.6011C5.00716 11.6011 4.26034 11.4495 3.5603 11.1462C2.86027 10.8468 2.24259 10.4294 1.70728 9.89404C1.1757 9.35872 0.758301 8.74105 0.455078 8.04102C0.151855 7.34098 0.000244141 6.59416 0.000244141 5.80054C0.000244141 5.00692 0.151855 4.26009 0.455078 3.56006C0.758301 2.86003 1.1757 2.24422 1.70728 1.71265C2.24259 1.17733 2.8584 0.758057 3.55469 0.454834C4.25472 0.151611 5.00155 0 5.79517 0C6.59253 0 7.34123 0.151611 8.04126 0.454834C8.74129 0.758057 9.35897 1.17733 9.89429 1.71265C10.4296 2.24422 10.8489 2.86003 11.1521 3.56006C11.4553 4.26009 11.6069 5.00692 11.6069 5.80054C11.6069 6.59416 11.4553 7.34098 11.1521 8.04102C10.8489 8.74105 10.4296 9.35872 9.89429 9.89404C9.35897 10.4294 8.74129 10.8468 8.04126 11.1462C7.34123 11.4495 6.5944 11.6011 5.80078 11.6011ZM5.80078 10.4556C6.4484 10.4556 7.05298 10.3358 7.6145 10.0962C8.17603 9.85661 8.67017 9.52344 9.09692 9.09668C9.52368 8.66992 9.85685 8.17578 10.0964 7.61426C10.336 7.05273 10.4558 6.44816 10.4558 5.80054C10.4558 5.15666 10.336 4.55396 10.0964 3.99243C9.85685 3.42716 9.52368 2.93115 9.09692 2.50439C8.67017 2.07764 8.17415 1.74447 7.60889 1.50488C7.04736 1.2653 6.44279 1.14551 5.79517 1.14551C5.15129 1.14551 4.54671 1.2653 3.98145 1.50488C3.41992 1.74447 2.92765 2.07764 2.50464 2.50439C2.08162 2.93115 1.75033 3.42716 1.51074 3.99243C1.27116 4.55396 1.15137 5.15666 1.15137 5.80054C1.15137 6.44816 1.27116 7.05273 1.51074 7.61426C1.75033 8.17578 2.08162 8.66992 2.50464 9.09668C2.9314 9.52344 3.42554 9.85661 3.98706 10.0962C4.55233 10.3358 5.1569 10.4556 5.80078 10.4556ZM4.8125 8.00171C4.71143 8.0616 4.61035 8.08781 4.50928 8.08032C4.41195 8.06909 4.32959 8.03166 4.26221 7.96802C4.19482 7.90063 4.16113 7.81266 4.16113 7.7041V3.90259C4.16113 3.79403 4.19482 3.70793 4.26221 3.64429C4.32959 3.58065 4.41382 3.54508 4.51489 3.5376C4.61971 3.52637 4.71891 3.54883 4.8125 3.60498L7.93457 5.45239C8.02441 5.5048 8.08431 5.5778 8.11426 5.67139C8.14421 5.76123 8.14421 5.85295 8.11426 5.94653C8.08805 6.03638 8.02816 6.10938 7.93457 6.16553L4.8125 8.00171Z" fill="white" fill-opacity="0.7"/>
</svg>
