<svg width="12" height="12" viewBox="0 0 12 12" fill="none" xmlns="http://www.w3.org/2000/svg">
<path d="M6.87451 8.71559L3.02148 10.9436C2.8776 11.0282 2.74219 11.0938 2.61523 11.1404C2.49251 11.1869 2.36344 11.2102 2.22803 11.2102C1.97412 11.2102 1.76465 11.1171 1.59961 10.9309C1.43457 10.7447 1.35205 10.495 1.35205 10.1819V3.18678L6.87451 8.71559ZM9.21045 7.36353L2.08838 0.247812C2.10954 0.209727 2.13916 0.177988 2.17725 0.152598C2.21533 0.127207 2.25765 0.114512 2.3042 0.114512C2.42269 0.114512 2.53906 0.137786 2.65332 0.184336C2.76758 0.226654 2.8903 0.288014 3.02148 0.368418L10.5054 4.70387C10.7804 4.86044 10.9772 5.00855 11.0957 5.1482C11.2142 5.28785 11.2734 5.45712 11.2734 5.65602C11.2734 5.85491 11.2142 6.02418 11.0957 6.16383C10.9772 6.30348 10.7804 6.4537 10.5054 6.61451L9.21045 7.36353ZM9.82617 10.531L0.145996 0.857188C0.0486654 0.764089 0 0.645599 0 0.501719C0 0.357839 0.0486654 0.239349 0.145996 0.14625C0.243327 0.0446875 0.361816 -0.00397786 0.501465 0.000253906C0.645345 0.000253906 0.765951 0.0489193 0.863281 0.14625L10.5435 9.81373C10.645 9.91529 10.6937 10.0359 10.6895 10.1755C10.6895 10.311 10.6408 10.4295 10.5435 10.531C10.4461 10.6326 10.3276 10.6834 10.188 10.6834C10.0483 10.6834 9.92773 10.6326 9.82617 10.531Z" fill="#12A3FF"/>
</svg>
