<svg width="12" height="12" viewBox="0 0 12 12" fill="none" xmlns="http://www.w3.org/2000/svg">
<path d="M2.1082 12C1.41403 12 0.889127 11.8222 0.533476 11.4665C0.177825 11.1152 0 10.5967 0 9.91109V2.08891C0 1.39904 0.177825 0.878415 0.533476 0.527049C0.889127 0.175683 1.41403 0 2.1082 0H9.8918C10.586 0 11.1109 0.175683 11.4665 0.527049C11.8222 0.878415 12 1.39904 12 2.08891V9.91109C12 10.5967 11.8222 11.1152 11.4665 11.4665C11.1109 11.8222 10.586 12 9.8918 12H2.1082ZM2.18532 10.7338H9.81468C10.1103 10.7338 10.3374 10.6567 10.496 10.5024C10.6545 10.3482 10.7338 10.1146 10.7338 9.80182V2.19175C10.7338 1.88324 10.6545 1.65185 10.496 1.49759C10.3374 1.34333 10.1103 1.2662 9.81468 1.2662H2.18532C1.88538 1.2662 1.65613 1.34333 1.49759 1.49759C1.34333 1.65185 1.2662 1.88324 1.2662 2.19175V9.80182C1.2662 10.1146 1.34333 10.3482 1.49759 10.5024C1.65613 10.6567 1.88538 10.7338 2.18532 10.7338ZM6.01607 8.99197C5.45474 8.99197 4.96626 8.8677 4.55062 8.61917C4.13498 8.37065 3.8136 8.01928 3.5865 7.56508C3.3594 7.10659 3.24585 6.56668 3.24585 5.94537C3.24585 5.32405 3.3594 4.78629 3.5865 4.33208C3.8136 3.87359 4.13283 3.52009 4.54419 3.27156C4.95983 3.01875 5.44617 2.89234 6.00321 2.89234C6.40171 2.89234 6.75951 2.95019 7.07659 3.06588C7.39368 3.18157 7.66149 3.34226 7.88002 3.54794C8.09855 3.75362 8.25924 3.98715 8.36208 4.24853C8.38779 4.30423 8.40493 4.35779 8.4135 4.40921C8.42207 4.46063 8.42635 4.51419 8.42635 4.5699C8.42635 4.72416 8.37922 4.84413 8.28495 4.92983C8.19497 5.01553 8.0707 5.05838 7.91216 5.05838C7.78361 5.05838 7.68077 5.03053 7.60364 4.97483C7.52651 4.91912 7.45581 4.83985 7.39154 4.73701C7.27584 4.45849 7.10016 4.24424 6.86449 4.09427C6.6331 3.9443 6.35458 3.86931 6.02892 3.86931C5.71612 3.86931 5.44189 3.95715 5.20621 4.13283C4.97483 4.30423 4.79486 4.54633 4.66631 4.85913C4.53776 5.16765 4.47349 5.52973 4.47349 5.94537C4.47349 6.36101 4.53776 6.72523 4.66631 7.03803C4.79914 7.35083 4.9834 7.59507 5.21907 7.77076C5.45474 7.94215 5.73112 8.02785 6.04821 8.02785C6.48099 8.02785 6.81093 7.92287 7.03803 7.71291C7.26513 7.50295 7.37868 7.22871 7.37868 6.8902V6.53669H6.376C6.24317 6.53669 6.13819 6.49598 6.06106 6.41457C5.98393 6.33315 5.94537 6.23674 5.94537 6.12533C5.94537 6.00107 5.98393 5.90252 6.06106 5.82967C6.13819 5.75254 6.24317 5.71398 6.376 5.71398H7.95715C8.35994 5.71398 8.56133 5.91966 8.56133 6.33101V6.72951C8.56133 7.17086 8.45849 7.56294 8.25281 7.90573C8.05142 8.24424 7.76004 8.50991 7.37868 8.70273C7.00161 8.89555 6.5474 8.99197 6.01607 8.99197Z" fill="#606266"/>
</svg>
