<svg width="12" height="12" viewBox="0 0 12 12" fill="none" xmlns="http://www.w3.org/2000/svg">
<path d="M2.1082 12C1.41403 12 0.889127 11.8222 0.533476 11.4665C0.177825 11.1152 0 10.5967 0 9.91109V2.08891C0 1.39904 0.177825 0.878415 0.533476 0.527049C0.889127 0.175683 1.41403 0 2.1082 0H9.8918C10.586 0 11.1109 0.175683 11.4665 0.527049C11.8222 0.878415 12 1.39904 12 2.08891V9.91109C12 10.5967 11.8222 11.1152 11.4665 11.4665C11.1109 11.8222 10.586 12 9.8918 12H2.1082ZM6.04178 9.1398C6.59454 9.1398 7.07017 9.0391 7.46867 8.83771C7.86717 8.63632 8.1714 8.35779 8.38136 8.00214C8.59561 7.64221 8.70273 7.23085 8.70273 6.76808V6.35029C8.70273 5.91751 8.49277 5.70112 8.07284 5.70112H6.41457C6.27317 5.70112 6.16176 5.74183 6.08034 5.82325C5.99893 5.90466 5.95822 6.0075 5.95822 6.13176C5.95822 6.25603 5.99893 6.36101 6.08034 6.44671C6.16176 6.52812 6.27317 6.56883 6.41457 6.56883H7.45581V6.93519C7.45581 7.29084 7.33798 7.58008 7.1023 7.80289C6.86663 8.02143 6.52384 8.13069 6.07392 8.13069C5.73969 8.13069 5.45046 8.04071 5.20621 7.86074C4.96197 7.67649 4.77129 7.42153 4.63417 7.09588C4.49705 6.76593 4.42849 6.38243 4.42849 5.94537C4.42849 5.51259 4.49491 5.13337 4.62775 4.80771C4.76486 4.47777 4.9534 4.22282 5.19336 4.04285C5.4376 3.86288 5.72469 3.7729 6.05463 3.7729C6.39743 3.7729 6.68881 3.85217 6.92876 4.01071C7.16872 4.16926 7.35297 4.39207 7.48152 4.67916C7.54151 4.79057 7.61007 4.87627 7.6872 4.93626C7.76861 4.99625 7.88002 5.02625 8.02143 5.02625C8.18854 5.02625 8.31923 4.97911 8.4135 4.88484C8.51205 4.79057 8.56133 4.66417 8.56133 4.50562C8.56133 4.44563 8.5549 4.38993 8.54205 4.33851C8.53348 4.28281 8.51848 4.22496 8.49705 4.16497C8.38993 3.89073 8.22067 3.64649 7.98929 3.43224C7.7579 3.218 7.47509 3.05088 7.14087 2.93091C6.81093 2.80664 6.43814 2.74451 6.0225 2.74451C5.43546 2.74451 4.92555 2.87734 4.49277 3.14301C4.05999 3.40439 3.72362 3.77504 3.48366 4.25495C3.24799 4.73487 3.13016 5.29834 3.13016 5.94537C3.13016 6.59668 3.25013 7.16229 3.49009 7.64221C3.73005 8.11784 4.06642 8.48634 4.4992 8.74772C4.93626 9.00911 5.45046 9.1398 6.04178 9.1398Z" fill="#12A3FF"/>
</svg>
