<svg width="12" height="10" viewBox="0 0 12 10" fill="none" xmlns="http://www.w3.org/2000/svg">
<path d="M5.90265 6.02137C6.17491 6.02137 6.4076 5.92323 6.60071 5.72695C6.79699 5.5275 6.89513 5.29007 6.89513 5.01464C6.89513 4.83736 6.84923 4.67273 6.75742 4.52078C6.66878 4.36882 6.54848 4.24693 6.39652 4.15512C6.24772 4.06332 6.0831 4.01741 5.90265 4.01741C5.62406 4.01741 5.38821 4.11714 5.19509 4.31658C5.00198 4.51286 4.90542 4.74555 4.90542 5.01464C4.90542 5.29007 5.00198 5.5275 5.19509 5.72695C5.38821 5.92323 5.62406 6.02137 5.90265 6.02137ZM4.01741 8.92283H10.3807C10.5991 8.92283 10.7685 8.86585 10.8888 8.75188C11.0091 8.63791 11.0693 8.46537 11.0693 8.23427V7.5552L9.33122 5.92165C9.23941 5.83933 9.13969 5.7776 9.03205 5.73645C8.92758 5.69529 8.81994 5.67471 8.70914 5.67471C8.59201 5.67471 8.48279 5.69371 8.38148 5.7317C8.28017 5.76969 8.18203 5.83142 8.08706 5.9169L6.21607 7.5742L5.47052 6.89988C5.38188 6.81757 5.29007 6.759 5.19509 6.72418C5.10012 6.68619 5.00356 6.66719 4.90542 6.66719C4.81678 6.66719 4.72814 6.68619 4.63949 6.72418C4.55085 6.76217 4.46221 6.81757 4.37357 6.89038L3.3336 7.81163V8.23427C3.3336 8.46537 3.39216 8.63791 3.5093 8.75188C3.62643 8.86585 3.79581 8.92283 4.01741 8.92283ZM3.96043 9.85358C3.44757 9.85358 3.05975 9.72378 2.79699 9.46419C2.53423 9.20459 2.40285 8.81994 2.40285 8.31025V3.79897C2.40285 3.29244 2.53423 2.90938 2.79699 2.64978C3.05975 2.38702 3.44757 2.25564 3.96043 2.25564H10.4424C10.9521 2.25564 11.3383 2.38702 11.6011 2.64978C11.867 2.91254 12 3.29561 12 3.79897V8.31025C12 8.81994 11.867 9.20459 11.6011 9.46419C11.3383 9.72378 10.9521 9.85358 10.4424 9.85358H3.96043ZM3.96043 1.56708C3.48872 1.56708 3.08508 1.65572 2.74951 1.833C2.41393 2.01029 2.15592 2.26672 1.97546 2.6023C1.79501 2.93471 1.70479 3.3336 1.70479 3.79897V7.59794H1.53858C1.02889 7.59161 0.644242 7.45865 0.384646 7.19905C0.128215 6.93945 0 6.55797 0 6.05461V1.54333C0 1.03364 0.131381 0.648991 0.394143 0.389395C0.656905 0.129798 1.04472 0 1.55758 0H8.03957C8.54294 0 8.926 0.126632 9.18876 0.379897C9.45469 0.633162 9.59082 1.00673 9.59715 1.50059V1.56708H3.96043Z" fill="#12A3FF"/>
</svg>
