<svg width="12" height="10" viewBox="0 0 12 10" fill="none" xmlns="http://www.w3.org/2000/svg">
<path d="M4.0744 9.50218C3.66284 9.50218 3.35259 9.39771 3.14365 9.18876C2.93471 8.98298 2.83023 8.66957 2.83023 8.24852L4.37357 6.89038C4.46221 6.81757 4.55085 6.76217 4.63949 6.72418C4.72814 6.68619 4.81678 6.66719 4.90542 6.66719C5.00356 6.66719 5.10012 6.68619 5.19509 6.72418C5.29007 6.759 5.38188 6.81757 5.47052 6.89988L6.21607 7.5742L8.08706 5.9169C8.18203 5.83142 8.28017 5.76969 8.38148 5.7317C8.48279 5.69371 8.59201 5.67471 8.70914 5.67471C8.81994 5.67471 8.92758 5.69529 9.03205 5.73645C9.13969 5.7776 9.23941 5.83933 9.33122 5.92165L11.5346 7.99209V8.25801C11.5346 8.6759 11.4286 8.98773 11.2165 9.19351C11.0075 9.39929 10.6989 9.50218 10.2905 9.50218H4.0744ZM5.90265 6.02137C5.62406 6.02137 5.38821 5.92323 5.19509 5.72695C5.00198 5.5275 4.90542 5.29007 4.90542 5.01464C4.90542 4.74555 5.00198 4.51286 5.19509 4.31658C5.38821 4.11714 5.62406 4.01741 5.90265 4.01741C6.0831 4.01741 6.24772 4.06332 6.39652 4.15512C6.54848 4.24693 6.66878 4.36882 6.75742 4.52078C6.84923 4.67273 6.89513 4.83736 6.89513 5.01464C6.89513 5.29007 6.79699 5.5275 6.60071 5.72695C6.4076 5.92323 6.17491 6.02137 5.90265 6.02137ZM1.55758 7.59794C1.04472 7.59794 0.656905 7.46814 0.394143 7.20855C0.131381 6.94895 0 6.56431 0 6.05461V1.54333C0 1.0368 0.131381 0.65374 0.394143 0.394143C0.656905 0.131381 1.04472 0 1.55758 0H8.03957C8.55243 0 8.94025 0.131381 9.20301 0.394143C9.46894 0.65374 9.6019 1.0368 9.6019 1.54333V2.61654H8.6664V1.62881C8.6664 1.3977 8.60625 1.22517 8.48595 1.1112C8.36882 0.994064 8.20103 0.935497 7.98259 0.935497H1.61456C1.39296 0.935497 1.22359 0.994064 1.10645 1.1112C0.992481 1.22517 0.935497 1.3977 0.935497 1.62881V5.97863C0.935497 6.20657 0.992481 6.37911 1.10645 6.49624C1.22359 6.61021 1.39296 6.66719 1.61456 6.66719H2.80649V7.59794H1.55758ZM3.96043 9.85833C3.44757 9.85833 3.05975 9.72695 2.79699 9.46419C2.53423 9.20459 2.40285 8.82153 2.40285 8.315V3.80372C2.40285 3.29402 2.53423 2.90938 2.79699 2.64978C3.05975 2.39019 3.44757 2.26039 3.96043 2.26039H10.4424C10.9521 2.26039 11.3383 2.39177 11.6011 2.65453C11.867 2.91413 12 3.29719 12 3.80372V8.315C12 8.82153 11.867 9.20459 11.6011 9.46419C11.3383 9.72695 10.9521 9.85833 10.4424 9.85833H3.96043ZM4.01741 8.92283H10.3807C10.5991 8.92283 10.7685 8.86585 10.8888 8.75188C11.0091 8.63791 11.0693 8.46537 11.0693 8.23427V3.88445C11.0693 3.65334 11.0091 3.48081 10.8888 3.36684C10.7685 3.2497 10.5991 3.19114 10.3807 3.19114H4.01741C3.79581 3.19114 3.62643 3.2497 3.5093 3.36684C3.39216 3.48081 3.3336 3.65334 3.3336 3.88445V8.23427C3.3336 8.46537 3.39216 8.63791 3.5093 8.75188C3.62643 8.86585 3.79581 8.92283 4.01741 8.92283Z" fill="white" fill-opacity="0.7"/>
</svg>
