<svg width="11" height="13" viewBox="0 0 11 13" fill="none" xmlns="http://www.w3.org/2000/svg">
<path fill-rule="evenodd" clip-rule="evenodd" d="M2.66767 6.38892C2.74373 6.46097 2.86782 6.497 3.03995 6.497H8.26397C8.43611 6.497 8.5582 6.46097 8.63025 6.38892C8.70231 6.31286 8.73834 6.19076 8.73834 6.02263V2.53395C8.73834 2.36582 8.70231 2.24573 8.63025 2.17367C8.5582 2.09761 8.43611 2.05958 8.26397 2.05958H3.03995C2.86782 2.05958 2.74373 2.09761 2.66767 2.17367C2.59561 2.24573 2.55958 2.36582 2.55958 2.53395V6.02263C2.55958 6.19076 2.59561 6.31286 2.66767 6.38892ZM0.5 1.96952V11.0305C0.5 11.679 0.664126 12.1694 0.992379 12.5016C1.32063 12.8339 1.80701 13 2.4515 13H8.84642C9.49092 13 9.97729 12.8339 10.3055 12.5016C10.6338 12.1694 10.7979 11.679 10.7979 11.0305V1.96952C10.7979 1.32502 10.6338 0.836644 10.3055 0.504388C9.97729 0.168129 9.49092 0 8.84642 0H2.4515C1.80701 0 1.32063 0.168129 0.992379 0.504388C0.664126 0.836644 0.5 1.32502 0.5 1.96952ZM1.89908 11.5949C1.75497 11.4468 1.68291 11.2346 1.68291 10.9584V2.04758C1.68291 1.76736 1.75497 1.55319 1.89908 1.40508C2.04319 1.25296 2.26136 1.17691 2.55358 1.17691H8.75035C9.04257 1.17691 9.26074 1.25296 9.40485 1.40508C9.54896 1.55319 9.62102 1.76736 9.62102 2.04758V10.9584C9.62102 11.2346 9.54896 11.4468 9.40485 11.5949C9.26074 11.743 9.04257 11.8171 8.75035 11.8171H2.55358C2.26136 11.8171 2.04319 11.743 1.89908 11.5949ZM5.64649 7.49023C5.75519 7.4938 5.84758 7.53305 5.92367 7.60797C5.99976 7.67932 6.03781 7.76495 6.03781 7.86485V9.23486L6.01063 9.93592L6.3639 9.57201L6.89653 9.02615C6.96538 8.95122 7.05415 8.91376 7.16285 8.91376C7.26792 8.91376 7.35488 8.94766 7.42372 9.01544C7.48894 9.07966 7.52155 9.15994 7.52155 9.25627C7.52155 9.30978 7.51068 9.35795 7.48894 9.40076C7.4672 9.44357 7.4346 9.48282 7.39112 9.51849L5.92911 10.8671C5.83852 10.9563 5.74432 11.0009 5.64649 11.0009C5.54866 11.0009 5.45445 10.9563 5.36387 10.8671L3.90186 9.51849C3.862 9.48282 3.83121 9.44357 3.80947 9.40076C3.78773 9.35795 3.77686 9.30978 3.77686 9.25627C3.77686 9.15994 3.81128 9.07966 3.88012 9.01544C3.94534 8.94766 4.03049 8.91376 4.13556 8.91376C4.24064 8.91376 4.32941 8.95122 4.40188 9.02615L4.92907 9.57201L5.28778 9.94127L5.2606 9.23486V7.86485C5.2606 7.76495 5.29865 7.67754 5.37474 7.60262C5.45083 7.5277 5.54141 7.49023 5.64649 7.49023Z" fill="white" fill-opacity="0.7"/>
</svg>
