<svg width="11" height="13" viewBox="0 0 11 13" fill="none" xmlns="http://www.w3.org/2000/svg">
<path d="M3.04047 5.02087C2.8683 5.02087 2.74418 4.98484 2.6681 4.91277C2.59604 4.8407 2.56 4.72058 2.56 4.55242V2.53446C2.56 2.3663 2.59604 2.24618 2.6681 2.17411C2.74418 2.09804 2.8683 2.06 3.04047 2.06H8.26554C8.43771 2.06 8.55982 2.09804 8.6319 2.17411C8.70397 2.24618 8.74 2.3663 8.74 2.53446V4.55242C8.74 4.72058 8.70397 4.8407 8.6319 4.91277C8.55982 4.98484 8.43771 5.02087 8.26554 5.02087H3.04047ZM0.5 11.0327V1.96991C0.5 1.32529 0.664159 0.836812 0.992478 0.50449C1.3208 0.168163 1.80727 0 2.4519 0H8.84811C9.49273 0 9.9792 0.168163 10.3075 0.50449C10.6358 0.836812 10.8 1.32529 10.8 1.96991V11.0327C10.8 11.6813 10.6358 12.1718 10.3075 12.5041C9.9792 12.8365 9.49273 13.0026 8.84811 13.0026H2.4519C1.80727 13.0026 1.3208 12.8365 0.992478 12.5041C0.664159 12.1718 0.5 11.6813 0.5 11.0327ZM1.68315 10.9606C1.68315 11.2369 1.75522 11.4491 1.89936 11.5973C2.0435 11.7454 2.26171 11.8195 2.55399 11.8195H8.75201C9.0443 11.8195 9.26251 11.7454 9.40665 11.5973C9.55079 11.4491 9.62286 11.2369 9.62286 10.9606V2.04799C9.62286 1.76772 9.55079 1.55351 9.40665 1.40536C9.26251 1.25322 9.0443 1.17714 8.75201 1.17714H2.55399C2.26171 1.17714 2.0435 1.25322 1.89936 1.40536C1.75522 1.55351 1.68315 1.76772 1.68315 2.04799V10.9606Z" fill="#12A3FF"/>
</svg>
