<svg width="11" height="13" viewBox="0 0 11 13" fill="none" xmlns="http://www.w3.org/2000/svg">
<path fill-rule="evenodd" clip-rule="evenodd" d="M2.6681 6.3902C2.74418 6.46227 2.8683 6.49831 3.04047 6.49831H8.26554C8.43771 6.49831 8.55982 6.46227 8.6319 6.3902C8.70397 6.31413 8.74 6.19201 8.74 6.02385V2.53446C8.74 2.3663 8.70397 2.24618 8.6319 2.17411C8.55982 2.09804 8.43771 2.06 8.26554 2.06H3.04047C2.8683 2.06 2.74418 2.09804 2.6681 2.17411C2.59604 2.24618 2.56 2.3663 2.56 2.53446V6.02385C2.56 6.19201 2.59604 6.31413 2.6681 6.3902ZM0.5 1.96991V11.0327C0.5 11.6813 0.664159 12.1718 0.992478 12.5041C1.3208 12.8365 1.80727 13.0026 2.4519 13.0026H8.84811C9.49273 13.0026 9.9792 12.8365 10.3075 12.5041C10.6358 12.1718 10.8 11.6813 10.8 11.0327V1.96991C10.8 1.32529 10.6358 0.836812 10.3075 0.50449C9.9792 0.168163 9.49273 0 8.84811 0H2.4519C1.80727 0 1.3208 0.168163 0.992478 0.50449C0.664159 0.836812 0.5 1.32529 0.5 1.96991ZM1.89936 11.5973C1.75522 11.4491 1.68315 11.2369 1.68315 10.9606V2.04799C1.68315 1.76772 1.75522 1.55351 1.89936 1.40536C2.0435 1.25322 2.26171 1.17714 2.55399 1.17714H8.75201C9.0443 1.17714 9.26251 1.25322 9.40665 1.40536C9.55079 1.55351 9.62286 1.76772 9.62286 2.04799V10.9606C9.62286 11.2369 9.55079 11.4491 9.40665 11.5973C9.26251 11.7454 9.0443 11.8195 8.75201 11.8195H2.55399C2.26171 11.8195 2.0435 11.7454 1.89936 11.5973ZM5.65294 11.002C5.54422 10.9984 5.45181 10.9591 5.3757 10.8842C5.2996 10.8128 5.26154 10.7272 5.26154 10.6273V9.25698L5.28872 8.55577L4.93538 8.91976L4.40264 9.46573C4.33379 9.54067 4.245 9.57814 4.13628 9.57814C4.03118 9.57814 3.9442 9.54424 3.87534 9.47644C3.81011 9.4122 3.77749 9.33191 3.77749 9.23557C3.77749 9.18204 3.78837 9.13386 3.81011 9.09104C3.83186 9.04822 3.86447 9.00897 3.90796 8.97328L5.37026 7.62441C5.46087 7.5352 5.55509 7.49059 5.65294 7.49059C5.75079 7.49059 5.84501 7.5352 5.93562 7.62441L7.39792 8.97328C7.43778 9.00897 7.46859 9.04822 7.49033 9.09104C7.51208 9.13387 7.52295 9.18204 7.52295 9.23557C7.52295 9.33191 7.48852 9.4122 7.41966 9.47644C7.35443 9.54424 7.26927 9.57814 7.16417 9.57814C7.05907 9.57814 6.97028 9.54067 6.8978 9.46573L6.3705 8.91976L6.01172 8.55042L6.0389 9.25698V10.6273C6.0389 10.7272 6.00085 10.8146 5.92474 10.8895C5.84864 10.9645 5.75804 11.002 5.65294 11.002Z" fill="#606266"/>
</svg>
