<svg width="12" height="13" viewBox="0 0 12 13" fill="none" xmlns="http://www.w3.org/2000/svg">
<path d="M5.19038 0.577637V12.1552H6.38721V0.577637H5.19038ZM2.03398 12.1552C1.36426 12.1552 0.857829 11.9837 0.514697 11.6405C0.171566 11.3015 0 10.8013 0 10.1398V2.59302C0 1.92743 0.171566 1.42513 0.514697 1.08613C0.857829 0.747135 1.36426 0.577637 2.03398 0.577637H9.5436C10.2133 0.577637 10.7198 0.747135 11.0629 1.08613C11.406 1.42513 11.5776 1.92743 11.5776 2.59302V10.1398C11.5776 10.8013 11.406 11.3015 11.0629 11.6405C10.7198 11.9837 10.2133 12.1552 9.5436 12.1552H2.03398Z" fill="#12A3FF"/>
</svg>
