<svg width="14" height="10" viewBox="0 0 14 10" fill="none" xmlns="http://www.w3.org/2000/svg">
<path d="M1.10642 7.83733C0.765533 7.83733 0.495172 7.7339 0.29534 7.52703C0.0984467 7.31703 0 7.03181 0 6.67137V3.32393C0 2.96349 0.0984467 2.67983 0.29534 2.47297C0.495172 2.26297 0.765533 2.15797 1.10642 2.15797H4.21411C4.55793 2.15797 4.8283 2.26297 5.02519 2.47297C5.22208 2.67983 5.32053 2.96349 5.32053 3.32393V6.67137C5.32053 7.03181 5.22208 7.31703 5.02519 7.52703C4.8283 7.7339 4.55793 7.83733 4.21411 7.83733H1.10642ZM1.18136 6.96286H4.13917C4.25378 6.96286 4.34341 6.92838 4.40806 6.85943C4.47271 6.79047 4.50504 6.69331 4.50504 6.56794V3.43206C4.50504 3.30669 4.47271 3.20953 4.40806 3.14057C4.34341 3.06848 4.25378 3.03244 4.13917 3.03244H1.18136C1.06675 3.03244 0.97712 3.06848 0.912469 3.14057C0.847817 3.20953 0.815491 3.30669 0.815491 3.43206V6.56794C0.815491 6.69331 0.847817 6.79047 0.912469 6.85943C0.97712 6.92838 1.06675 6.96286 1.18136 6.96286ZM7 10C6.88245 10 6.78694 9.96082 6.71348 9.88246C6.64001 9.80724 6.60327 9.70851 6.60327 9.58627V0.409027C6.60327 0.289923 6.64001 0.19276 6.71348 0.117536C6.78694 0.0391788 6.88245 0 7 0C7.11755 0 7.21306 0.0391788 7.28652 0.117536C7.36293 0.19276 7.40113 0.289923 7.40113 0.409027V9.58627C7.40113 9.70851 7.36293 9.80724 7.28652 9.88246C7.21306 9.96082 7.11755 10 7 10ZM9.78589 7.83733C9.44207 7.83733 9.17171 7.7339 8.97481 7.52703C8.77792 7.31703 8.67947 7.03181 8.67947 6.67137V3.32393C8.67947 2.96349 8.77792 2.67983 8.97481 2.47297C9.17171 2.26297 9.44207 2.15797 9.78589 2.15797H12.8936C13.2374 2.15797 13.5078 2.26297 13.7047 2.47297C13.9016 2.67983 14 2.96349 14 3.32393V6.67137C14 7.03181 13.9016 7.31703 13.7047 7.52703C13.5078 7.7339 13.2374 7.83733 12.8936 7.83733H9.78589ZM9.86083 6.96286H12.8186C12.9332 6.96286 13.0229 6.92838 13.0875 6.85943C13.1522 6.79047 13.1845 6.69331 13.1845 6.56794V3.43206C13.1845 3.30669 13.1522 3.20953 13.0875 3.14057C13.0229 3.06848 12.9332 3.03244 12.8186 3.03244H9.86083C9.74622 3.03244 9.65659 3.06848 9.59194 3.14057C9.52729 3.20953 9.49496 3.30669 9.49496 3.43206V6.56794C9.49496 6.69331 9.52729 6.79047 9.59194 6.85943C9.65659 6.92838 9.74622 6.96286 9.86083 6.96286Z" fill="#606266"/>
</svg>
