<svg width="14" height="10" viewBox="0 0 14 10" fill="none" xmlns="http://www.w3.org/2000/svg">
<path d="M1.10642 7.83733C0.765533 7.83733 0.495172 7.7339 0.29534 7.52703C0.0984467 7.31703 0 7.03181 0 6.67137V3.32393C0 2.96349 0.0984467 2.67983 0.29534 2.47297C0.495172 2.26297 0.765533 2.15797 1.10642 2.15797H4.21411C4.55793 2.15797 4.8283 2.26297 5.02519 2.47297C5.22208 2.67983 5.32053 2.96349 5.32053 3.32393V6.67137C5.32053 7.03181 5.22208 7.31703 5.02519 7.52703C4.8283 7.7339 4.55793 7.83733 4.21411 7.83733H1.10642ZM7 10C6.88245 10 6.78694 9.96082 6.71348 9.88246C6.64001 9.80724 6.60327 9.70851 6.60327 9.58627V0.409027C6.60327 0.289923 6.64001 0.19276 6.71348 0.117536C6.78694 0.0391788 6.88245 0 7 0C7.11755 0 7.21306 0.0391788 7.28652 0.117536C7.36293 0.19276 7.40113 0.289923 7.40113 0.409027V9.58627C7.40113 9.70851 7.36293 9.80724 7.28652 9.88246C7.21306 9.96082 7.11755 10 7 10ZM9.78589 7.83733C9.44207 7.83733 9.1717 7.7339 8.97481 7.52703C8.77792 7.31703 8.67947 7.03181 8.67947 6.67137V3.32393C8.67947 2.96349 8.77792 2.67983 8.97481 2.47297C9.1717 2.26297 9.44207 2.15797 9.78589 2.15797H12.8936C13.2374 2.15797 13.5078 2.26297 13.7047 2.47297C13.9016 2.67983 14 2.96349 14 3.32393V6.67137C14 7.03181 13.9016 7.31703 13.7047 7.52703C13.5078 7.7339 13.2374 7.83733 12.8936 7.83733H9.78589Z" fill="#12A3FF"/>
</svg>
