<svg width="12" height="12" viewBox="0 0 12 12" fill="none" xmlns="http://www.w3.org/2000/svg">
<path d="M5.19038 10.8831V0.675928H6.38721V10.8831H5.19038ZM2.03398 11.5776C1.36426 11.5776 0.857829 11.406 0.514697 11.0629C0.171566 10.7239 0 10.2237 0 9.56221V2.01538C0 1.34979 0.171566 0.847494 0.514697 0.508496C0.857829 0.169499 1.36426 0 2.03398 0H9.5436C10.2133 0 10.7198 0.169499 11.0629 0.508496C11.406 0.847494 11.5776 1.34979 11.5776 2.01538V9.56221C11.5776 10.2237 11.406 10.7239 11.0629 11.0629C10.7198 11.406 10.2133 11.5776 9.5436 11.5776H2.03398ZM2.1084 10.356H9.46919C9.75444 10.356 9.97355 10.2815 10.1265 10.1327C10.2795 9.98389 10.356 9.75858 10.356 9.45679V2.1146C10.356 1.81694 10.2795 1.5937 10.1265 1.44487C9.97355 1.29604 9.75444 1.22163 9.46919 1.22163H2.1084C1.81901 1.22163 1.59784 1.29604 1.44487 1.44487C1.29604 1.5937 1.22163 1.81694 1.22163 2.1146V9.45679C1.22163 9.75858 1.29604 9.98389 1.44487 10.1327C1.59784 10.2815 1.81901 10.356 2.1084 10.356Z" fill="white" fill-opacity="0.7"/>
</svg>
