<svg width="13" height="10" viewBox="0 0 13 10" fill="none" xmlns="http://www.w3.org/2000/svg">
<path d="M1.19922 1.00977C1.06071 1.00977 0.94279 0.962972 0.845459 0.869385C0.751872 0.772054 0.705078 0.654134 0.705078 0.515625C0.705078 0.380859 0.751872 0.264811 0.845459 0.16748C0.94279 0.0701497 1.06071 0.0214844 1.19922 0.0214844H11.7896C11.9281 0.0214844 12.046 0.0701497 12.1433 0.16748C12.2406 0.264811 12.2893 0.380859 12.2893 0.515625C12.2893 0.654134 12.2406 0.772054 12.1433 0.869385C12.046 0.962972 11.9281 1.00977 11.7896 1.00977H1.19922ZM1.19922 3.95215C1.06071 3.95215 0.94279 3.90535 0.845459 3.81177C0.751872 3.71444 0.705078 3.59652 0.705078 3.45801C0.705078 3.3195 0.751872 3.20345 0.845459 3.10986C0.94279 3.01253 1.06071 2.96387 1.19922 2.96387H7.4939C7.63241 2.96387 7.74845 3.01253 7.84204 3.10986C7.93937 3.20345 7.98804 3.3195 7.98804 3.45801C7.98804 3.59652 7.93937 3.71444 7.84204 3.81177C7.74845 3.90535 7.63241 3.95215 7.4939 3.95215H1.19922ZM1.19922 6.89453C1.06071 6.89453 0.94279 6.84774 0.845459 6.75415C0.751872 6.65682 0.705078 6.5389 0.705078 6.40039C0.705078 6.26188 0.751872 6.14583 0.845459 6.05225C0.94279 5.95492 1.06071 5.90625 1.19922 5.90625H11.7896C11.9281 5.90625 12.046 5.95492 12.1433 6.05225C12.2406 6.14583 12.2893 6.26188 12.2893 6.40039C12.2893 6.5389 12.2406 6.65682 12.1433 6.75415C12.046 6.84774 11.9281 6.89453 11.7896 6.89453H1.19922ZM1.19922 9.8313C1.06071 9.8313 0.94279 9.7845 0.845459 9.69092C0.751872 9.59733 0.705078 9.48128 0.705078 9.34277C0.705078 9.20052 0.751872 9.0826 0.845459 8.98901C0.94279 8.89168 1.06071 8.84302 1.19922 8.84302H7.4939C7.63241 8.84302 7.74845 8.89168 7.84204 8.98901C7.93937 9.0826 7.98804 9.20052 7.98804 9.34277C7.98804 9.48128 7.93937 9.59733 7.84204 9.69092C7.74845 9.7845 7.63241 9.8313 7.4939 9.8313H1.19922Z" fill="#12A3FF"/>
</svg>
