<svg width="12" height="13" viewBox="0 0 12 13" fill="none" xmlns="http://www.w3.org/2000/svg">
<path d="M11.5776 5.76802H0V6.96484H11.5776V5.76802ZM0 2.61162C0 1.94189 0.169499 1.43547 0.508496 1.09233C0.851628 0.749202 1.35392 0.577637 2.01538 0.577637H9.56221C10.2278 0.577637 10.7301 0.749202 11.0691 1.09233C11.4081 1.43547 11.5776 1.94189 11.5776 2.61162V10.1212C11.5776 10.791 11.4081 11.2974 11.0691 11.6405C10.7301 11.9837 10.2278 12.1552 9.56221 12.1552H2.01538C1.35392 12.1552 0.851628 11.9837 0.508496 11.6405C0.169499 11.2974 0 10.791 0 10.1212V2.61162Z" fill="#12A3FF"/>
</svg>
