<svg width="12" height="12" viewBox="0 0 12 12" fill="none" xmlns="http://www.w3.org/2000/svg">
<path d="M0.694531 5.19038H10.9017V6.38721H0.694531V5.19038ZM0 2.03398C0 1.36426 0.169499 0.857829 0.508496 0.514697C0.851628 0.171566 1.35392 0 2.01538 0H9.56221C10.2278 0 10.7301 0.171566 11.0691 0.514697C11.4081 0.857829 11.5776 1.36426 11.5776 2.03398V9.5436C11.5776 10.2133 11.4081 10.7198 11.0691 11.0629C10.7301 11.406 10.2278 11.5776 9.56221 11.5776H2.01538C1.35392 11.5776 0.851628 11.406 0.508496 11.0629C0.169499 10.7198 0 10.2133 0 9.5436V2.03398ZM1.22163 2.1084V9.46919C1.22163 9.75444 1.29604 9.97355 1.44487 10.1265C1.5937 10.2795 1.81901 10.356 2.1208 10.356H9.46299C9.76064 10.356 9.98389 10.2795 10.1327 10.1265C10.2815 9.97355 10.356 9.75444 10.356 9.46919V2.1084C10.356 1.81901 10.2815 1.5999 10.1327 1.45107C9.98389 1.29811 9.76064 1.22163 9.46299 1.22163H2.1208C1.81901 1.22163 1.5937 1.29811 1.44487 1.45107C1.29604 1.5999 1.22163 1.81901 1.22163 2.1084Z" fill="#606266"/>
</svg>
