<svg width="14" height="14" viewBox="0 0 14 14" fill="none" xmlns="http://www.w3.org/2000/svg">
<path d="M7 7.87109C6.875 7.87109 6.75 7.84961 6.625 7.80664C6.5 7.76367 6.35938 7.69727 6.20312 7.60742L1.65039 4.96484C1.40039 4.82031 1.21875 4.68164 1.10547 4.54883C0.992188 4.41211 0.935547 4.24805 0.935547 4.05664C0.935547 3.87305 0.992188 3.71484 1.10547 3.58203C1.21875 3.44531 1.40039 3.30273 1.65039 3.1543L6.20312 0.511719C6.35938 0.425781 6.5 0.361328 6.625 0.318359C6.75 0.271484 6.875 0.248047 7 0.248047C7.125 0.248047 7.25 0.271484 7.375 0.318359C7.50391 0.361328 7.64453 0.425781 7.79688 0.511719L12.3496 3.1543C12.5996 3.30273 12.7793 3.44531 12.8887 3.58203C13.002 3.71484 13.0586 3.87305 13.0586 4.05664C13.0586 4.24805 13.002 4.41211 12.8887 4.54883C12.7793 4.68164 12.5996 4.82031 12.3496 4.96484L7.79688 7.60742C7.64453 7.69727 7.50391 7.76367 7.375 7.80664C7.25 7.84961 7.125 7.87109 7 7.87109ZM7 10.7773C6.88281 10.7773 6.76953 10.752 6.66016 10.7012C6.55078 10.6504 6.42773 10.5859 6.29102 10.5078L1.36328 7.60742C1.22266 7.52148 1.11523 7.42188 1.04102 7.30859C0.966797 7.19531 0.929688 7.07617 0.929688 6.95117C0.929688 6.81055 0.96875 6.68555 1.04688 6.57617C1.12891 6.4668 1.2207 6.38281 1.32227 6.32422L6.66602 9.42383C6.73242 9.45898 6.79102 9.48828 6.8418 9.51172C6.89648 9.53516 6.94922 9.54688 7 9.54688C7.05078 9.54688 7.10156 9.53516 7.15234 9.51172C7.20703 9.48828 7.26758 9.45898 7.33398 9.42383L12.6777 6.32422C12.7793 6.38281 12.8691 6.4668 12.9473 6.57617C13.0254 6.68555 13.0645 6.81055 13.0645 6.95117C13.0645 7.07617 13.0293 7.19531 12.959 7.30859C12.8887 7.42188 12.7812 7.52148 12.6367 7.60742L7.70898 10.5078C7.56836 10.5859 7.44336 10.6504 7.33398 10.7012C7.22461 10.752 7.11328 10.7773 7 10.7773ZM7 13.5078C6.88281 13.5078 6.76953 13.4824 6.66016 13.4316C6.55078 13.3848 6.42773 13.3203 6.29102 13.2383L1.36328 10.3379C1.22266 10.2559 1.11523 10.1602 1.04102 10.0508C0.966797 9.9375 0.929688 9.81445 0.929688 9.68164C0.929688 9.54492 0.96875 9.42188 1.04688 9.3125C1.12891 9.20312 1.2207 9.11914 1.32227 9.06055L6.66602 12.1602C6.73242 12.1953 6.79102 12.2246 6.8418 12.248C6.89648 12.2715 6.94922 12.2832 7 12.2832C7.05078 12.2832 7.10156 12.2715 7.15234 12.248C7.20703 12.2246 7.26758 12.1953 7.33398 12.1602L12.6777 9.06055C12.7793 9.11914 12.8691 9.20312 12.9473 9.3125C13.0254 9.42188 13.0645 9.54492 13.0645 9.68164C13.0645 9.81445 13.0273 9.9375 12.9531 10.0508C12.8828 10.1602 12.7773 10.2559 12.6367 10.3379L7.70898 13.2383C7.56836 13.3203 7.44336 13.3848 7.33398 13.4316C7.22461 13.4824 7.11328 13.5078 7 13.5078Z" fill="#12A3FF"/>
</svg>
