<svg width="13" height="14" viewBox="0 0 13 14" fill="none" xmlns="http://www.w3.org/2000/svg">
<path d="M6.07031 7.62305C5.94531 7.62305 5.82031 7.60156 5.69531 7.55859C5.57031 7.51562 5.42969 7.44922 5.27344 7.35938L0.720703 4.7168C0.470703 4.57227 0.289062 4.43359 0.175781 4.30078C0.0625 4.16406 0.00585938 4 0.00585938 3.80859C0.00585938 3.625 0.0625 3.4668 0.175781 3.33398C0.289062 3.19727 0.470703 3.05469 0.720703 2.90625L5.27344 0.263672C5.42969 0.177734 5.57031 0.113281 5.69531 0.0703125C5.82031 0.0234375 5.94531 0 6.07031 0C6.19531 0 6.32031 0.0234375 6.44531 0.0703125C6.57422 0.113281 6.71484 0.177734 6.86719 0.263672L11.4199 2.90625C11.6699 3.05469 11.8496 3.19727 11.959 3.33398C12.0723 3.4668 12.1289 3.625 12.1289 3.80859C12.1289 4 12.0723 4.16406 11.959 4.30078C11.8496 4.43359 11.6699 4.57227 11.4199 4.7168L6.86719 7.35938C6.71484 7.44922 6.57422 7.51562 6.44531 7.55859C6.32031 7.60156 6.19531 7.62305 6.07031 7.62305ZM6.07031 6.4043C6.13672 6.4043 6.2168 6.37891 6.31055 6.32812L10.6172 3.86719C10.6445 3.85156 10.6582 3.83203 10.6582 3.80859C10.6582 3.78906 10.6445 3.77148 10.6172 3.75586L6.31055 1.30078C6.2168 1.25 6.13672 1.22461 6.07031 1.22461C6 1.22461 5.91992 1.25 5.83008 1.30078L1.51758 3.75586C1.49414 3.77148 1.48242 3.78906 1.48242 3.80859C1.48242 3.83203 1.49414 3.85156 1.51758 3.86719L5.83008 6.32812C5.91992 6.37891 6 6.4043 6.07031 6.4043ZM6.07031 10.5293C5.95312 10.5293 5.83984 10.5039 5.73047 10.4531C5.62109 10.4023 5.49805 10.3379 5.36133 10.2598L0.433594 7.35938C0.292969 7.27344 0.185547 7.17383 0.111328 7.06055C0.0371094 6.94727 0 6.82812 0 6.70312C0 6.5625 0.0390625 6.4375 0.117188 6.32812C0.199219 6.21875 0.291016 6.13477 0.392578 6.07617L5.73633 9.17578C5.80273 9.21094 5.86133 9.24023 5.91211 9.26367C5.9668 9.28711 6.01953 9.29883 6.07031 9.29883C6.12109 9.29883 6.17188 9.28711 6.22266 9.26367C6.27734 9.24023 6.33789 9.21094 6.4043 9.17578L11.748 6.07617C11.8496 6.13477 11.9395 6.21875 12.0176 6.32812C12.0957 6.4375 12.1348 6.5625 12.1348 6.70312C12.1348 6.82812 12.0996 6.94727 12.0293 7.06055C11.959 7.17383 11.8516 7.27344 11.707 7.35938L6.7793 10.2598C6.63867 10.3379 6.51367 10.4023 6.4043 10.4531C6.29492 10.5039 6.18359 10.5293 6.07031 10.5293ZM6.07031 13.2598C5.95312 13.2598 5.83984 13.2344 5.73047 13.1836C5.62109 13.1367 5.49805 13.0723 5.36133 12.9902L0.433594 10.0898C0.292969 10.0078 0.185547 9.91211 0.111328 9.80273C0.0371094 9.68945 0 9.56641 0 9.43359C0 9.29688 0.0390625 9.17383 0.117188 9.06445C0.199219 8.95508 0.291016 8.87109 0.392578 8.8125L5.73633 11.9121C5.80273 11.9473 5.86133 11.9766 5.91211 12C5.9668 12.0234 6.01953 12.0352 6.07031 12.0352C6.12109 12.0352 6.17188 12.0234 6.22266 12C6.27734 11.9766 6.33789 11.9473 6.4043 11.9121L11.748 8.8125C11.8496 8.87109 11.9395 8.95508 12.0176 9.06445C12.0957 9.17383 12.1348 9.29688 12.1348 9.43359C12.1348 9.56641 12.0977 9.68945 12.0234 9.80273C11.9531 9.91211 11.8477 10.0078 11.707 10.0898L6.7793 12.9902C6.63867 13.0723 6.51367 13.1367 6.4043 13.1836C6.29492 13.2344 6.18359 13.2598 6.07031 13.2598Z" fill="#606266"/>
</svg>
