<svg width="12" height="13" viewBox="0 0 12 13" fill="none" xmlns="http://www.w3.org/2000/svg">
<path d="M8.58569 8.10278L9.61328 7.41211L10.9385 8.18701C11.1781 8.32926 11.3521 8.4659 11.4607 8.59692C11.5693 8.7242 11.6235 8.87581 11.6235 9.05176C11.6235 9.23519 11.5693 9.39242 11.4607 9.52344C11.3521 9.65072 11.1781 9.78548 10.9385 9.92773L6.57544 12.4546C6.42944 12.5407 6.29468 12.6043 6.17114 12.6455C6.05135 12.6867 5.93156 12.7073 5.81177 12.7073C5.68823 12.7073 5.56657 12.6867 5.44678 12.6455C5.33073 12.6043 5.19784 12.5407 5.0481 12.4546L0.685059 9.92773C0.445475 9.78548 0.271403 9.65072 0.162842 9.52344C0.0542806 9.39242 0 9.23519 0 9.05176C0 8.87581 0.0542806 8.7242 0.162842 8.59692C0.271403 8.4659 0.445475 8.32926 0.685059 8.18701L2.1001 7.36719L3.18945 8.01294L1.44873 9.00122C1.42627 9.01619 1.41504 9.03304 1.41504 9.05176C1.41504 9.07422 1.42627 9.09294 1.44873 9.10791L5.58154 11.4663C5.66764 11.515 5.74438 11.5393 5.81177 11.5393C5.87541 11.5393 5.95215 11.515 6.04199 11.4663L10.1692 9.10791C10.1954 9.09294 10.2085 9.07422 10.2085 9.05176C10.2085 9.03304 10.1954 9.01619 10.1692 9.00122L8.58569 8.10278ZM8.49023 5.42432L9.53467 4.75049L10.9385 5.5647C11.1781 5.70321 11.3521 5.83984 11.4607 5.97461C11.5693 6.10563 11.6235 6.25911 11.6235 6.43506C11.6235 6.61475 11.5693 6.7701 11.4607 6.90112C11.3521 7.03215 11.1781 7.16504 10.9385 7.2998L6.57544 9.83789C6.42944 9.92399 6.29468 9.98763 6.17114 10.0288C6.05135 10.07 5.93156 10.0906 5.81177 10.0906C5.68823 10.0906 5.56657 10.07 5.44678 10.0288C5.33073 9.98763 5.19784 9.92399 5.0481 9.83789L0.685059 7.2998C0.445475 7.16504 0.271403 7.03215 0.162842 6.90112C0.0542806 6.7701 0 6.61475 0 6.43506C0 6.25911 0.0542806 6.10563 0.162842 5.97461C0.271403 5.83984 0.445475 5.70321 0.685059 5.5647L2.20117 4.68872L3.25684 5.35132L1.44873 6.37891C1.42627 6.39388 1.41504 6.4126 1.41504 6.43506C1.41504 6.45752 1.42627 6.47624 1.44873 6.49121L5.58154 8.84399C5.66764 8.89266 5.74438 8.91699 5.81177 8.91699C5.87541 8.91699 5.95215 8.89266 6.04199 8.84399L10.1692 6.49121C10.1954 6.47624 10.2085 6.45752 10.2085 6.43506C10.2085 6.4126 10.1954 6.39388 10.1692 6.37891L8.49023 5.42432ZM5.81177 7.30542C5.68823 7.30542 5.56657 7.28483 5.44678 7.24365C5.33073 7.20247 5.19784 7.13883 5.0481 7.05273L0.685059 4.52026C0.445475 4.38175 0.271403 4.24886 0.162842 4.12158C0.0542806 3.99056 0 3.83333 0 3.6499C0 3.47396 0.0542806 3.32235 0.162842 3.19507C0.271403 3.06405 0.445475 2.92741 0.685059 2.78516L5.0481 0.252686C5.19784 0.170329 5.33073 0.108561 5.44678 0.0673828C5.56657 0.0224609 5.68823 0 5.81177 0C5.93156 0 6.05135 0.0224609 6.17114 0.0673828C6.29468 0.108561 6.42944 0.170329 6.57544 0.252686L10.9385 2.78516C11.1781 2.92741 11.3521 3.06405 11.4607 3.19507C11.5693 3.32235 11.6235 3.47396 11.6235 3.6499C11.6235 3.83333 11.5693 3.99056 11.4607 4.12158C11.3521 4.24886 11.1781 4.38175 10.9385 4.52026L6.57544 7.05273C6.42944 7.13883 6.29468 7.20247 6.17114 7.24365C6.05135 7.28483 5.93156 7.30542 5.81177 7.30542ZM5.81177 6.13745C5.87541 6.13745 5.95215 6.11312 6.04199 6.06445L10.1692 3.70605C10.1954 3.69108 10.2085 3.67236 10.2085 3.6499C10.2085 3.63118 10.1954 3.61434 10.1692 3.59937L6.04199 1.24658C5.95215 1.19792 5.87541 1.17358 5.81177 1.17358C5.74438 1.17358 5.66764 1.19792 5.58154 1.24658L1.44873 3.59937C1.42627 3.61434 1.41504 3.63118 1.41504 3.6499C1.41504 3.67236 1.42627 3.69108 1.44873 3.70605L5.58154 6.06445C5.66764 6.11312 5.74438 6.13745 5.81177 6.13745Z" fill="white" fill-opacity="0.7"/>
</svg>
