<svg width="14" height="10" viewBox="0 0 14 10" fill="none" xmlns="http://www.w3.org/2000/svg">
<path id="&#244;&#128;&#134;&#133;" d="M1.98633 9.91309C1.47526 9.91309 1.09115 9.78613 0.833984 9.53223C0.580078 9.28158 0.453125 8.90397 0.453125 8.39941V2.44727C0.453125 1.95573 0.570312 1.58789 0.804688 1.34375C1.03906 1.09961 1.37109 0.977539 1.80078 0.977539H3.19238C3.35189 0.977539 3.49023 0.988932 3.60742 1.01172C3.72786 1.03451 3.83691 1.07194 3.93457 1.12402C4.03548 1.17611 4.13965 1.24772 4.24707 1.33887L4.54492 1.58301C4.66862 1.68717 4.78743 1.76204 4.90137 1.80762C5.0153 1.84993 5.15527 1.87109 5.32129 1.87109H8.27539C8.20703 2.00781 8.15332 2.13965 8.11426 2.2666C8.0752 2.3903 8.04102 2.52051 8.01172 2.65723H5.11621C4.95671 2.65723 4.81673 2.64583 4.69629 2.62305C4.57585 2.60026 4.46517 2.56283 4.36426 2.51074C4.26335 2.45866 4.16081 2.38867 4.05664 2.30078L3.75879 2.05176C3.63509 1.94759 3.51628 1.87272 3.40234 1.82715C3.29167 1.78158 3.15495 1.75879 2.99219 1.75879H1.96191C1.72754 1.75879 1.5485 1.82064 1.4248 1.94434C1.30111 2.06803 1.23926 2.25033 1.23926 2.49121V8.36035C1.23926 8.61426 1.30436 8.80632 1.43457 8.93652C1.56478 9.06348 1.75195 9.12695 1.99609 9.12695H9.99414C10.235 9.12695 10.4222 9.06348 10.5557 8.93652C10.6891 8.80632 10.7559 8.61589 10.7559 8.36523V6.42676C10.8828 6.44629 11.0212 6.45605 11.1709 6.45605C11.3206 6.4528 11.4443 6.44303 11.542 6.42676V8.39941C11.542 8.90397 11.4199 9.28158 11.1758 9.53223C10.9316 9.78613 10.5915 9.91309 10.1553 9.91309H1.98633ZM0.931641 4.44434V3.70703H7.97266C7.98568 3.83398 8.00684 3.95931 8.03613 4.08301C8.06543 4.20671 8.10286 4.32715 8.14844 4.44434H0.931641ZM11.1025 5.78711C10.764 5.78711 10.445 5.72363 10.1455 5.59668C9.84603 5.46647 9.58236 5.28743 9.35449 5.05957C9.12663 4.83171 8.94759 4.56803 8.81738 4.26855C8.68717 3.96908 8.62207 3.64844 8.62207 3.30664C8.62207 2.96484 8.68717 2.64583 8.81738 2.34961C8.94759 2.05013 9.12663 1.78646 9.35449 1.55859C9.58236 1.32747 9.84603 1.14844 10.1455 1.02148C10.445 0.891276 10.764 0.826172 11.1025 0.826172C11.4443 0.826172 11.765 0.891276 12.0645 1.02148C12.3639 1.14844 12.6276 1.32585 12.8555 1.55371C13.0833 1.78158 13.2607 2.04525 13.3877 2.34473C13.5179 2.64421 13.583 2.96484 13.583 3.30664C13.583 3.64518 13.5179 3.96419 13.3877 4.26367C13.2575 4.56315 13.0768 4.82682 12.8457 5.05469C12.6178 5.28255 12.3542 5.46159 12.0547 5.5918C11.7552 5.72201 11.4378 5.78711 11.1025 5.78711ZM11.1025 4.85938C11.1937 4.85938 11.2653 4.83171 11.3174 4.77637C11.3727 4.72103 11.4004 4.64941 11.4004 4.56152V3.60449H12.3574C12.4453 3.60449 12.5169 3.57845 12.5723 3.52637C12.6276 3.47103 12.6553 3.39779 12.6553 3.30664C12.6553 3.21549 12.6276 3.14388 12.5723 3.0918C12.5169 3.03646 12.4453 3.00879 12.3574 3.00879H11.4004V2.05176C11.4004 1.96387 11.3727 1.89225 11.3174 1.83691C11.2653 1.78158 11.1937 1.75391 11.1025 1.75391C11.0114 1.75391 10.9382 1.78158 10.8828 1.83691C10.8307 1.89225 10.8047 1.96387 10.8047 2.05176V3.00879H9.84766C9.75977 3.00879 9.68815 3.03646 9.63281 3.0918C9.57747 3.14388 9.5498 3.21549 9.5498 3.30664C9.5498 3.39779 9.57747 3.47103 9.63281 3.52637C9.68815 3.57845 9.75977 3.60449 9.84766 3.60449H10.8047V4.56152C10.8047 4.64941 10.8307 4.72103 10.8828 4.77637C10.9382 4.83171 11.0114 4.85938 11.1025 4.85938Z" fill="#606266"/>
</svg>
