<svg width="13" height="13" viewBox="0 0 13 13" fill="none" xmlns="http://www.w3.org/2000/svg">
<path d="M1.00805 11.0202C0.559392 10.5715 0.259641 10.0764 0.108799 9.53496C-0.0381752 8.99348 -0.0362413 8.45393 0.114601 7.91631C0.265443 7.37483 0.563259 6.88169 1.00805 6.4369L2.83556 4.60939C2.80075 4.76797 2.79108 4.92848 2.80655 5.09092C2.82202 5.25337 2.8607 5.40034 2.92259 5.53185L1.5592 6.89523C1.20724 7.24719 0.971307 7.6359 0.851407 8.06135C0.735374 8.48294 0.73344 8.90646 0.845605 9.33191C0.961637 9.75736 1.1937 10.1461 1.5418 10.498C1.8899 10.8423 2.27474 11.0705 2.69632 11.1826C3.12177 11.2987 3.54723 11.2967 3.97268 11.1768C4.39813 11.0608 4.78684 10.8268 5.1388 10.4748L6.45577 9.16366C6.53699 9.08244 6.60661 8.99928 6.66463 8.91419C6.63369 9.09211 6.61822 9.26809 6.61822 9.44214C6.62208 9.61619 6.63949 9.7883 6.67043 9.95848L5.59713 11.0318C5.15234 11.4766 4.66114 11.7725 4.12352 11.9194C3.5859 12.0703 3.04635 12.0722 2.50487 11.9252C1.96338 11.7783 1.46444 11.4766 1.00805 11.0202ZM5.14461 4.2961L5.74797 3.68693C6.17729 3.72174 6.53506 3.8049 6.82127 3.9364C7.10749 4.0679 7.35889 4.24389 7.57548 4.46435C7.80368 4.69254 7.9932 4.93621 8.14404 5.19535C8.29489 5.45062 8.40705 5.71363 8.48054 5.98437C8.3413 6.0772 8.2098 6.18163 8.08603 6.29766C7.96613 6.41369 7.85783 6.53939 7.76114 6.67476C7.76887 6.38082 7.71279 6.0888 7.59289 5.79872C7.47299 5.50864 7.28927 5.23983 7.04174 4.99229C6.81741 4.76797 6.5544 4.59778 6.25272 4.48175C5.95103 4.36185 5.58166 4.29997 5.14461 4.2961ZM4.44261 7.57402C3.99008 7.12536 3.69033 6.63029 3.54336 6.0888C3.39638 5.54732 3.39638 5.00777 3.54336 4.47015C3.6942 3.92866 3.99202 3.43553 4.43681 2.99074L6.41516 1.00658C6.85995 0.56179 7.35116 0.263974 7.88877 0.113132C8.43026 -0.0377105 8.97174 -0.0377105 9.51323 0.113132C10.0547 0.260106 10.5517 0.559856 11.0042 1.01238C11.4258 1.43784 11.714 1.9039 11.8687 2.41057C12.0234 2.91725 12.0466 3.42586 11.9383 3.9364C11.83 4.44694 11.5921 4.91494 11.2247 5.34039L10.9288 5.64208C10.7857 5.61113 10.6252 5.59566 10.4473 5.59566C10.2732 5.59566 10.1127 5.6092 9.96575 5.63627L10.4589 5.14314C10.8109 4.79117 11.0449 4.40246 11.1609 3.97701C11.2808 3.55156 11.2827 3.12804 11.1667 2.70646C11.0507 2.281 10.8186 1.89423 10.4705 1.54613C10.1224 1.19417 9.73562 0.962102 9.31017 0.849937C8.88859 0.737773 8.46507 0.741641 8.03961 0.861541C7.61803 0.977573 7.22932 1.20964 6.87349 1.55774L4.98796 3.44906C4.636 3.79716 4.40006 4.18394 4.28016 4.60939C4.16413 5.03484 4.1622 5.46029 4.27436 5.88574C4.3904 6.30733 4.62439 6.6941 4.97636 7.04607C5.15041 7.22012 5.35153 7.36516 5.57973 7.48119C5.80792 7.59722 6.07673 7.68231 6.38615 7.73646C6.30106 7.83316 6.21597 7.93178 6.13088 8.03234C6.04966 8.13291 5.9665 8.23347 5.88141 8.33403C5.55652 8.26441 5.27998 8.16578 5.05178 8.03815C4.82358 7.90664 4.62053 7.75193 4.44261 7.57402ZM10.1166 11.9774C9.72208 11.9774 9.35078 11.902 9.00268 11.7512C8.65459 11.6042 8.3471 11.3973 8.08023 11.1304C7.81722 10.8674 7.61029 10.5619 7.45945 10.2138C7.30861 9.86179 7.23319 9.48855 7.23319 9.09404C7.23319 8.69953 7.30861 8.32823 7.45945 7.98013C7.61029 7.63203 7.81722 7.32455 8.08023 7.05767C8.3471 6.7908 8.65459 6.58387 9.00268 6.4369C9.35078 6.28606 9.72208 6.21063 10.1166 6.21063C10.515 6.21063 10.8882 6.28606 11.2363 6.4369C11.5844 6.58387 11.89 6.7908 12.153 7.05767C12.4198 7.32068 12.6268 7.62623 12.7737 7.97433C12.9246 8.32243 13 8.69566 13 9.09404C13 9.48855 12.9246 9.85985 12.7737 10.208C12.6229 10.556 12.414 10.8616 12.1472 11.1246C11.8803 11.3915 11.5728 11.6003 11.2247 11.7512C10.8766 11.902 10.5072 11.9774 10.1166 11.9774ZM10.1108 10.9216C10.2075 10.9216 10.2829 10.8925 10.3371 10.8345C10.3951 10.7765 10.4241 10.703 10.4241 10.6141V9.40153H11.6308C11.7198 9.40153 11.7933 9.37445 11.8513 9.3203C11.9093 9.26616 11.9383 9.19073 11.9383 9.09404C11.9383 8.99735 11.9093 8.92193 11.8513 8.86778C11.7933 8.81363 11.7198 8.78655 11.6308 8.78655H10.4241V7.57402C10.4241 7.48506 10.3951 7.41157 10.3371 7.35355C10.2829 7.29554 10.2075 7.26653 10.1108 7.26653C10.018 7.26653 9.94255 7.29554 9.88453 7.35355C9.83038 7.41157 9.80331 7.48506 9.80331 7.57402V8.78655H8.59077C8.50181 8.78655 8.42832 8.81363 8.37031 8.86778C8.31229 8.92193 8.28328 8.99735 8.28328 9.09404C8.28328 9.19073 8.31229 9.26616 8.37031 9.3203C8.42832 9.37445 8.50181 9.40153 8.59077 9.40153H9.80331V10.6141C9.80331 10.703 9.83038 10.7765 9.88453 10.8345C9.94255 10.8925 10.018 10.9216 10.1108 10.9216Z" fill="white" fill-opacity="0.7"/>
</svg>
