<svg width="13" height="12" viewBox="0 0 13 12" fill="none" xmlns="http://www.w3.org/2000/svg">
<path d="M1.00805 10.989C0.559392 10.5416 0.259641 10.048 0.108799 9.508C-0.0381752 8.96805 -0.0362413 8.43002 0.114601 7.89393C0.265443 7.35397 0.56326 6.86223 1.00805 6.4187L2.83556 4.59635C2.80075 4.75448 2.79108 4.91454 2.80655 5.07653C2.82202 5.23851 2.8607 5.38507 2.92259 5.5162L1.5592 6.87573C1.20724 7.2267 0.971307 7.61431 0.851407 8.03856C0.735374 8.45895 0.73344 8.88127 0.845605 9.30552C0.961637 9.72977 1.1937 10.1174 1.5418 10.4683C1.8899 10.8116 2.27474 11.0392 2.69632 11.151C3.12177 11.2667 3.54723 11.2648 3.97268 11.1452C4.39813 11.0295 4.78684 10.7962 5.1388 10.4452L6.45577 9.13775C6.53699 9.05675 6.60661 8.97383 6.66463 8.88898C6.63369 9.0664 6.61822 9.24188 6.61822 9.41544C6.62209 9.58899 6.63949 9.76062 6.67043 9.93032L5.59713 11.0006C5.15234 11.4441 4.66114 11.7392 4.12352 11.8857C3.5859 12.0361 3.04635 12.0381 2.50487 11.8915C1.96338 11.745 1.46444 11.4441 1.00805 10.989ZM5.14461 4.28395L5.74797 3.6765C6.17729 3.71122 6.53506 3.79414 6.82127 3.92527C7.10749 4.0564 7.35889 4.23188 7.57549 4.45172C7.80368 4.67927 7.9932 4.92225 8.14404 5.18066C8.29489 5.43521 8.40705 5.69747 8.48054 5.96745C8.3413 6.06001 8.2098 6.16415 8.08603 6.27985C7.96613 6.39556 7.85783 6.5209 7.76114 6.65589C7.76887 6.36277 7.71279 6.07158 7.59289 5.78232C7.47299 5.49306 7.28927 5.22501 7.04174 4.97818C6.81741 4.75448 6.5544 4.58478 6.25272 4.46908C5.95103 4.34952 5.58166 4.28781 5.14461 4.28395ZM4.44261 7.5526C3.99008 7.10521 3.69033 6.61154 3.54336 6.07158C3.39638 5.53163 3.39638 4.9936 3.54336 4.45751C3.6942 3.91755 3.99202 3.42581 4.43681 2.98228L6.41516 1.00373C6.85995 0.560202 7.35116 0.263227 7.88877 0.112812C8.43026 -0.0376039 8.97174 -0.0376039 9.51323 0.112812C10.0547 0.25937 10.5517 0.558273 11.0042 1.00952C11.4258 1.43377 11.714 1.89851 11.8687 2.40376C12.0234 2.909 12.0466 3.41617 11.9383 3.92527C11.83 4.43437 11.5921 4.90104 11.2247 5.32529L10.9288 5.62612C10.7857 5.59527 10.6252 5.57984 10.4473 5.57984C10.2732 5.57984 10.1127 5.59334 9.96575 5.62034L10.4589 5.12859C10.8109 4.77762 11.0449 4.39001 11.1609 3.96576C11.2808 3.54152 11.2827 3.11919 11.1667 2.6988C11.0507 2.27455 10.8186 1.88887 10.4705 1.54176C10.1224 1.19079 9.73562 0.959381 9.31017 0.847534C8.88859 0.735686 8.46507 0.739543 8.03961 0.859104C7.61803 0.974809 7.22932 1.20622 6.87349 1.55333L4.98796 3.43931C4.636 3.78642 4.40006 4.1721 4.28016 4.59635C4.16413 5.0206 4.1622 5.44485 4.27436 5.8691C4.3904 6.28949 4.62439 6.67517 4.97636 7.02614C5.15041 7.1997 5.35153 7.34433 5.57973 7.46003C5.80792 7.57574 6.07673 7.66059 6.38615 7.71458C6.30106 7.811 6.21597 7.90935 6.13088 8.00963C6.04966 8.10991 5.9665 8.21018 5.88141 8.31046C5.55652 8.24104 5.27998 8.14269 5.05178 8.01542C4.82358 7.88428 4.62053 7.73001 4.44261 7.5526ZM10.1166 11.9436C9.72208 11.9436 9.35078 11.8684 9.00268 11.718C8.65459 11.5714 8.3471 11.3651 8.08023 11.0989C7.81722 10.8367 7.61029 10.532 7.45945 10.1849C7.30861 9.8339 7.23319 9.46172 7.23319 9.06832C7.23319 8.67493 7.30861 8.30468 7.45945 7.95756C7.61029 7.61045 7.81722 7.30383 8.08023 7.03771C8.3471 6.77159 8.65459 6.56525 9.00268 6.4187C9.35078 6.26828 9.72208 6.19307 10.1166 6.19307C10.515 6.19307 10.8882 6.26828 11.2363 6.4187C11.5844 6.56525 11.89 6.77159 12.153 7.03771C12.4198 7.29998 12.6268 7.60466 12.7737 7.95178C12.9246 8.29889 13 8.67107 13 9.06832C13 9.46172 12.9246 9.83197 12.7737 10.1791C12.6229 10.5262 12.414 10.8309 12.1472 11.0931C11.8803 11.3593 11.5728 11.5675 11.2247 11.718C10.8766 11.8684 10.5072 11.9436 10.1166 11.9436ZM10.1108 10.8907C10.2075 10.8907 10.2829 10.8617 10.3371 10.8039C10.3951 10.746 10.4241 10.6728 10.4241 10.5841V9.37494H11.6308C11.7198 9.37494 11.7933 9.34794 11.8513 9.29395C11.9093 9.23995 11.9383 9.16474 11.9383 9.06832C11.9383 8.9719 11.9093 8.8967 11.8513 8.8427C11.7933 8.78871 11.7198 8.76171 11.6308 8.76171H10.4241V7.5526C10.4241 7.46389 10.3951 7.39061 10.3371 7.33276C10.2829 7.27491 10.2075 7.24598 10.1108 7.24598C10.018 7.24598 9.94255 7.27491 9.88453 7.33276C9.83038 7.39061 9.80331 7.46389 9.80331 7.5526V8.76171H8.59077C8.50181 8.76171 8.42832 8.78871 8.37031 8.8427C8.31229 8.8967 8.28328 8.9719 8.28328 9.06832C8.28328 9.16474 8.31229 9.23995 8.37031 9.29395C8.42832 9.34794 8.50181 9.37494 8.59077 9.37494H9.80331V10.5841C9.80331 10.6728 9.83038 10.746 9.88453 10.8039C9.94255 10.8617 10.018 10.8907 10.1108 10.8907Z" fill="black"/>
</svg>
