<?xml version="1.0" encoding="utf-8"?>
<!-- Generator: Adobe Illustrator 25.0.1, SVG Export Plug-In . SVG Version: 6.00 Build 0)  -->
<svg version="1.1" id="图层_1" xmlns="http://www.w3.org/2000/svg" xmlns:xlink="http://www.w3.org/1999/xlink" x="0px" y="0px"
	 viewBox="0 0 20 20" enable-background="new 0 0 20 20" xml:space="preserve">
<path fill-rule="evenodd" clip-rule="evenodd" fill="#007AFF" d="M4.5,1.5c-1.7,0-3,1.3-3,3v11c0,1.7,1.3,3,3,3h11c1.7,0,3-1.3,3-3
	v-11c0-1.7-1.3-3-3-3H4.5z M13.2,7.3c0.2,0,0.3-0.2,0.3-0.4v-2c0-0.3-0.3-0.6-0.6-0.5L10.2,5C9.8,5.1,9.6,5.3,9.6,5.6l0,5.9
	c0,0.2-0.1,0.4-0.3,0.4l-0.9,0.2c-1.1,0.2-1.6,0.8-1.6,1.7c0,0.9,0.7,1.5,1.6,1.5c0.9,0,2-0.7,2-2.2V8.1c0-0.2,0-0.3,0.2-0.3
	L13.2,7.3z"/>
</svg>
