<svg width="13" height="13" viewBox="0 0 13 13" fill="none" xmlns="http://www.w3.org/2000/svg">
<path d="M7.25977 6.73828L8.4082 6.05859L11.4141 7.79883C11.6641 7.94336 11.8457 8.08398 11.959 8.2207C12.0723 8.35742 12.1289 8.51953 12.1289 8.70703C12.1289 8.89062 12.0723 9.05078 11.959 9.1875C11.8457 9.32422 11.6641 9.46484 11.4141 9.60938L6.86133 12.2578C6.70898 12.3438 6.56836 12.4082 6.43945 12.4512C6.31445 12.498 6.18945 12.5215 6.06445 12.5215C5.93555 12.5215 5.80859 12.498 5.68359 12.4512C5.5625 12.4082 5.42383 12.3438 5.26758 12.2578L0.714844 9.60938C0.464844 9.46484 0.283203 9.32422 0.169922 9.1875C0.0566406 9.05078 0 8.89062 0 8.70703C0 8.51953 0.0566406 8.35742 0.169922 8.2207C0.283203 8.08398 0.464844 7.94336 0.714844 7.79883L3.84375 5.98828L5.00391 6.66211L1.51172 8.64844C1.48828 8.66406 1.47656 8.68359 1.47656 8.70703C1.47656 8.73047 1.48828 8.75 1.51172 8.76562L5.82422 11.2148C5.91406 11.2656 5.99414 11.291 6.06445 11.291C6.13086 11.291 6.21094 11.2656 6.30469 11.2148L10.6113 8.76562C10.6387 8.75 10.6523 8.73047 10.6523 8.70703C10.6523 8.68359 10.6387 8.66406 10.6113 8.64844L7.25977 6.73828ZM6.06445 7.63477C5.93555 7.63477 5.80859 7.61328 5.68359 7.57031C5.5625 7.52344 5.42383 7.45508 5.26758 7.36523L0.714844 4.72852C0.464844 4.58008 0.283203 4.4375 0.169922 4.30078C0.0566406 4.16406 0 4.00195 0 3.81445C0 3.63086 0.0566406 3.4707 0.169922 3.33398C0.283203 3.19727 0.464844 3.05664 0.714844 2.91211L5.26758 0.269531C5.42383 0.179688 5.5625 0.113281 5.68359 0.0703125C5.80859 0.0234375 5.93555 0 6.06445 0C6.18945 0 6.31445 0.0234375 6.43945 0.0703125C6.56836 0.113281 6.70898 0.179688 6.86133 0.269531L11.4141 2.91211C11.6641 3.05664 11.8457 3.19727 11.959 3.33398C12.0723 3.4707 12.1289 3.63086 12.1289 3.81445C12.1289 4.00195 12.0723 4.16406 11.959 4.30078C11.8457 4.4375 11.6641 4.58008 11.4141 4.72852L6.86133 7.36523C6.70898 7.45508 6.56836 7.52344 6.43945 7.57031C6.31445 7.61328 6.18945 7.63477 6.06445 7.63477Z" fill="#12A3FF"/>
</svg>
