<svg width="10" height="11" viewBox="0 0 10 11" fill="none" xmlns="http://www.w3.org/2000/svg">
<path d="M0.751953 8.55566C0.530599 8.42871 0.361328 8.28223 0.244141 8.11621C0.126953 7.9502 0.0683594 7.69303 0.0683594 7.34473V3.47754C0.0683594 3.22363 0.11556 3.01367 0.209961 2.84766C0.307617 2.67839 0.460612 2.53516 0.668945 2.41797L4.12109 0.455078C4.41732 0.285807 4.71029 0.201172 5 0.201172C5.28971 0.201172 5.58105 0.285807 5.87402 0.455078L9.33105 2.41797C9.53613 2.53516 9.68587 2.67839 9.78027 2.84766C9.87793 3.01367 9.92676 3.22363 9.92676 3.47754V7.34473C9.92676 7.69303 9.86816 7.9502 9.75098 8.11621C9.63704 8.28223 9.46777 8.42871 9.24316 8.55566L5.40527 10.7334C5.2653 10.8115 5.12858 10.8506 4.99512 10.8506C4.86491 10.8506 4.73145 10.8115 4.59473 10.7334L0.751953 8.55566ZM1.19141 7.91113L4.61426 9.85938V5.80664L0.810547 3.63379V7.32031C0.810547 7.45378 0.838216 7.56608 0.893555 7.65723C0.948893 7.74837 1.04818 7.83301 1.19141 7.91113ZM8.80859 7.91113C8.94857 7.83301 9.04622 7.74837 9.10156 7.65723C9.1569 7.56608 9.18457 7.45378 9.18457 7.32031V3.63379L5.38086 5.80664V9.85938L8.80859 7.91113ZM5 5.12305L6.50879 4.26855L2.73926 2.125L1.23047 2.98926L5 5.12305ZM7.29492 3.82422L8.76953 2.98926L5.55176 1.15332C5.18717 0.941732 4.81934 0.941732 4.44824 1.15332L3.51074 1.68555L7.29492 3.82422Z" fill="#606266"/>
</svg>
