<?xml version="1.0" encoding="utf-8"?>
<!-- Generator: Adobe Illustrator 25.0.1, SVG Export Plug-In . SVG Version: 6.00 Build 0)  -->
<svg version="1.1" id="图层_1" xmlns="http://www.w3.org/2000/svg" xmlns:xlink="http://www.w3.org/1999/xlink" x="0px" y="0px"
	 viewBox="0 0 20 20" enable-background="new 0 0 20 20" xml:space="preserve">
<path fill="#12A3FF" d="M10.6,18.5v-8.1L18,6.3c0,0.1,0,0.3,0,0.5v6.2c0,0.6-0.1,1-0.3,1.3c-0.2,0.3-0.5,0.5-0.9,0.7l-6.1,3.4
	c0,0-0.1,0-0.1,0.1C10.6,18.5,10.6,18.5,10.6,18.5z M9.4,18.5c0,0-0.1,0-0.1,0c0,0-0.1,0-0.1-0.1l-6.1-3.4c-0.4-0.2-0.7-0.5-0.9-0.7
	C2.1,14,2,13.6,2,13.1V6.8c0-0.2,0-0.4,0.1-0.5l7.4,4.2V18.5z M10,9.4L2.6,5.3C2.7,5.2,2.9,5.1,3,5l2.8-1.6l7.5,4.2L10,9.4z
	 M14.5,6.9L7,2.7l1.5-0.8C9,1.6,9.5,1.5,10,1.5c0.5,0,1,0.1,1.5,0.4L17,5c0.2,0.1,0.3,0.2,0.5,0.3L14.5,6.9z"/>
</svg>
