<svg width="11" height="11" viewBox="0 0 11 11" fill="none" xmlns="http://www.w3.org/2000/svg">
<path d="M8.64286 9.42857C8.63474 9.87067 8.48126 10.241 8.18243 10.5396C7.8836 10.8381 7.51326 10.9916 7.07143 11H1.57143C1.12933 10.9919 0.759 10.8384 0.460429 10.5396C0.161857 10.2407 0.00838095 9.87041 0 9.42857V3.92857C0.00811905 3.48648 0.161595 3.11614 0.460429 2.81757C0.759262 2.519 1.1296 2.36552 1.57143 2.35714V3.14286C1.35038 3.15098 1.16626 3.22876 1.01907 3.37621C0.871881 3.52367 0.794095 3.70779 0.785714 3.92857V9.42857C0.793833 9.64962 0.871619 9.83374 1.01907 9.98093C1.16652 10.1281 1.35064 10.2059 1.57143 10.2143H7.07143C7.29248 10.2062 7.4766 10.1284 7.62379 9.98093C7.77098 9.83348 7.84876 9.64936 7.85714 9.42857H8.64286ZM3.92857 0.785714C3.70752 0.793833 3.5234 0.871619 3.37621 1.01907C3.22902 1.16652 3.15124 1.35064 3.14286 1.57143V7.07143C3.15098 7.29248 3.22876 7.4766 3.37621 7.62379C3.52367 7.77098 3.70779 7.84876 3.92857 7.85714H9.42857C9.64962 7.84902 9.83374 7.77124 9.98093 7.62379C10.1281 7.47633 10.2059 7.29221 10.2143 7.07143V1.57143C10.2062 1.35038 10.1284 1.16626 9.98093 1.01907C9.83348 0.871881 9.64936 0.794095 9.42857 0.785714H3.92857ZM3.92857 0H9.42857C9.87067 0.00811905 10.241 0.161595 10.5396 0.460429C10.8381 0.759262 10.9916 1.1296 11 1.57143V7.07143C10.9919 7.51352 10.8384 7.88386 10.5396 8.18243C10.2407 8.481 9.87041 8.63448 9.42857 8.64286H3.92857C3.48648 8.63474 3.11614 8.48126 2.81757 8.18243C2.519 7.8836 2.36552 7.51326 2.35714 7.07143V1.57143C2.36526 1.12933 2.51874 0.759 2.81757 0.460429C3.1164 0.161857 3.48674 0.00838095 3.92857 0Z" fill="#FFF"/>
</svg>
