<svg width="12" height="12" viewBox="0 0 12 12" fill="none" xmlns="http://www.w3.org/2000/svg">
<path d="M0.299805 3.62616V2.1535C0.299805 1.5399 0.45638 1.07863 0.769531 0.769714C1.08268 0.456563 1.54818 0.299988 2.16602 0.299988H3.60693V1.08075H2.18506C1.82536 1.08075 1.55029 1.17385 1.35986 1.36005C1.17367 1.54624 1.08057 1.82343 1.08057 2.19159V3.62616H0.299805ZM4.34961 1.08075V0.299988H7.73926V1.08075H4.34961ZM11.0083 3.62616V2.19159C11.0083 1.82343 10.911 1.54624 10.7163 1.36005C10.5259 1.17385 10.255 1.08075 9.90381 1.08075H8.48193V0.299988H9.9165C10.5386 0.299988 11.0062 0.456563 11.3193 0.769714C11.6325 1.07863 11.7891 1.5399 11.7891 2.1535V3.62616H11.0083ZM11.0083 7.72675V4.36249H11.7891V7.72675H11.0083ZM8.48193 11.7892V11.0085H9.90381C10.255 11.0085 10.5259 10.9154 10.7163 10.7292C10.911 10.543 11.0083 10.2658 11.0083 9.89764V8.46307H11.7891V9.93573C11.7891 10.5451 11.6325 11.0064 11.3193 11.3195C11.0062 11.6327 10.5386 11.7892 9.9165 11.7892H8.48193ZM4.34961 11.7892V11.0085H7.73926V11.7892H4.34961ZM2.16602 11.7892C1.54818 11.7892 1.08268 11.6327 0.769531 11.3195C0.45638 11.0106 0.299805 10.5493 0.299805 9.93573V8.46307H1.08057V9.89764C1.08057 10.2658 1.17367 10.543 1.35986 10.7292C1.55029 10.9154 1.82536 11.0085 2.18506 11.0085H3.60693V11.7892H2.16602ZM0.299805 7.72675V4.36249H1.08057V7.72675H0.299805ZM2.57227 10.2595C2.31413 10.2595 2.1237 10.1981 2.00098 10.0754C1.87826 9.95266 1.81689 9.76011 1.81689 9.49774V2.5661C1.81689 2.30373 1.87826 2.11119 2.00098 1.98846C2.1237 1.86574 2.31413 1.80438 2.57227 1.80438H9.5166C9.77474 1.80438 9.96517 1.86574 10.0879 1.98846C10.2106 2.11119 10.272 2.30373 10.272 2.5661V9.49774C10.272 9.76011 10.2106 9.95266 10.0879 10.0754C9.96517 10.1981 9.77474 10.2595 9.5166 10.2595H2.57227Z" fill="#12A3FF"/>
</svg>
