<svg width="12" height="10" viewBox="0 0 12 10" fill="none" xmlns="http://www.w3.org/2000/svg">
<path d="M1.95929 4.9321C1.79983 4.9321 1.68617 4.89408 1.61832 4.81803C1.55047 4.74199 1.51654 4.61706 1.51654 4.44324V2.04237C1.51654 1.86855 1.55047 1.74362 1.61832 1.66757C1.68617 1.59153 1.79983 1.5535 1.95929 1.5535H5.55216C5.71162 1.5535 5.82528 1.59153 5.89313 1.66757C5.96438 1.74362 6 1.86855 6 2.04237V4.44324C6 4.61706 5.96438 4.74199 5.89313 4.81803C5.82528 4.89408 5.71162 4.9321 5.55216 4.9321H1.95929ZM1.59796 10C1.06531 10 0.66497 9.85877 0.396947 9.57632C0.132316 9.29748 0 8.87742 0 8.31613V1.68387C0 1.12258 0.132316 0.702517 0.396947 0.423683C0.66497 0.141228 1.06531 0 1.59796 0H10.402C10.9381 0 11.3384 0.141228 11.6031 0.423683C11.8677 0.702517 12 1.12258 12 1.68387V8.31613C12 8.87742 11.8677 9.29748 11.6031 9.57632C11.3384 9.85877 10.9381 10 10.402 10H1.59796ZM1.60814 9.12548H10.3919C10.6429 9.12548 10.8363 9.05305 10.972 8.9082C11.1111 8.76335 11.1807 8.55151 11.1807 8.27268V1.72732C11.1807 1.44487 11.1111 1.23303 10.972 1.0918C10.8363 0.946949 10.6429 0.874525 10.3919 0.874525H1.60814C1.35369 0.874525 1.15861 0.946949 1.0229 1.0918C0.887193 1.23303 0.819338 1.44487 0.819338 1.72732V8.27268C0.819338 8.55151 0.887193 8.76335 1.0229 8.9082C1.15861 9.05305 1.35369 9.12548 1.60814 9.12548Z" fill="#12A3FF"/>
</svg>
