<svg width="10" height="10" viewBox="0 0 10 10" fill="none" xmlns="http://www.w3.org/2000/svg">
<path d="M1.21429 10C0.996032 10 0.821429 9.92124 0.690476 9.76373C0.563492 9.61016 0.5 9.40539 0.5 9.14944V0.844654C0.5 0.588699 0.563492 0.383934 0.690476 0.23036C0.821429 0.0767868 0.996032 0 1.21429 0C1.33333 0 1.44643 0.0216578 1.55357 0.0649734C1.66071 0.104351 1.77381 0.157511 1.89286 0.224454L8.83333 4.21146C9.08333 4.35322 9.25595 4.4812 9.35119 4.59539C9.4504 4.70565 9.5 4.83954 9.5 4.99705C9.5 5.15456 9.4504 5.29041 9.35119 5.40461C9.25595 5.51487 9.08333 5.64284 8.83333 5.78854L1.89286 9.76964C1.77381 9.84052 1.66071 9.89565 1.55357 9.93503C1.44643 9.97834 1.33333 10 1.21429 10ZM1.51786 8.87183C1.5377 8.87183 1.56151 8.86395 1.58929 8.8482L8.17857 5.06202C8.19048 5.05414 8.20238 5.04627 8.21429 5.03839C8.22619 5.02658 8.23214 5.0128 8.23214 4.99705C8.23214 4.9813 8.22619 4.96948 8.21429 4.96161C8.20238 4.94979 8.19048 4.93995 8.17857 4.93207L1.58929 1.1518C1.56151 1.13211 1.5377 1.12227 1.51786 1.12227C1.47817 1.12227 1.45833 1.14589 1.45833 1.19315V8.80095C1.45833 8.8482 1.47817 8.87183 1.51786 8.87183Z" fill="white"/>
</svg>
