<svg width="150" height="37" viewBox="0 0 150 37" fill="none" xmlns="http://www.w3.org/2000/svg">
<g clip-path="url(#clip0_1534_1656)">
<path d="M23.6842 19.6562H6.57895C7.20824 22.4199 9.61098 24.112 13.0435 24.112C15.4462 24.112 17.1625 23.407 18.7071 21.9687L22.1968 25.6913C20.1087 28.0602 16.9622 29.301 12.8719 29.301C5.06293 29.301 0 24.4504 0 17.8231C0 11.1958 5.14874 6.34521 12.0423 6.34521C18.9359 6.34521 23.7986 10.7446 23.7986 17.9077C23.7986 18.4153 23.7128 19.1204 23.6842 19.6562ZM6.52174 15.9054H17.6487C17.1911 13.0853 15.0458 11.2804 12.0995 11.2804C9.15332 11.2804 6.9794 13.0289 6.52174 15.9054Z" fill="#12A3FF"/>
<path d="M45.5091 23.9993V28.9627H25.3718V25.0709L36.8707 11.6753H25.6579V6.71191H45.1373V10.6037L33.6384 23.9993H45.5091Z" fill="#12A3FF"/>
<path d="M49.1133 0H62.4714C72.0824 0 78.6614 5.69665 78.6614 14.4954C78.6614 23.2942 72.0824 28.9909 62.4428 28.9909H49.0847L49.1133 0ZM62.1282 23.4634C67.9634 23.4634 71.7964 20.0229 71.7964 14.4954C71.7964 8.96799 67.9634 5.49924 62.1282 5.49924H55.9211V23.4634H62.1282Z" fill="#12A3FF"/>
<path d="M96.31 6.37354V12.324C95.7665 12.2676 95.3374 12.2394 94.8512 12.2394C91.247 12.2394 88.8443 14.1853 88.8443 18.4437V28.9627H82.2939V6.68375H88.5582V9.61667C90.1315 7.50158 92.8203 6.37354 96.31 6.37354Z" fill="#12A3FF"/>
<path d="M97.2827 17.8514C97.2827 11.1395 102.546 6.37354 109.697 6.37354C116.848 6.37354 122.082 11.1395 122.082 17.8514C122.082 24.5633 116.877 29.3293 109.697 29.3293C102.517 29.3293 97.2827 24.5351 97.2827 17.8514ZM115.446 17.8514C115.446 14.0161 112.958 11.6754 109.697 11.6754C106.436 11.6754 103.919 13.9879 103.919 17.8514C103.919 21.715 106.436 24.0275 109.697 24.0275C112.958 24.0275 115.446 21.6868 115.446 17.8514Z" fill="#12A3FF"/>
<path d="M150 17.8514C150 24.8453 145.08 29.3293 138.759 29.3293C135.955 29.3293 133.638 28.4551 131.951 26.6502V37.0283H125.4V6.71195H131.665V9.27826C133.295 7.33238 135.726 6.37354 138.759 6.37354C145.08 6.37354 150 10.8575 150 17.8514ZM143.364 17.8514C143.364 14.0161 140.875 11.6754 137.614 11.6754C134.353 11.6754 131.865 13.9879 131.865 17.8514C131.865 21.715 134.353 24.0275 137.614 24.0275C140.875 24.0275 143.364 21.6868 143.364 17.8514Z" fill="#12A3FF"/>
</g>
<defs>
<clipPath id="clip0_1534_1656">
<rect width="150" height="37" fill="white"/>
</clipPath>
</defs>
</svg>
