<svg width="16" height="13" viewBox="0 0 16 13" fill="none" xmlns="http://www.w3.org/2000/svg">
<path d="M0.618652 10.2192V5.01416H15.0342V10.2192C15.0342 10.8752 14.8755 11.366 14.5581 11.6919C14.2407 12.022 13.7985 12.187 13.2314 12.187H2.61182C1.94743 12.187 1.44808 12.022 1.11377 11.6919C0.783691 11.366 0.618652 10.8752 0.618652 10.2192ZM0.618652 4.18262V2.48145C0.618652 1.84245 0.770996 1.36426 1.07568 1.04688C1.38037 0.729492 1.81201 0.570801 2.37061 0.570801H4.17969C4.38704 0.570801 4.56689 0.585612 4.71924 0.615234C4.87581 0.644857 5.01758 0.693522 5.14453 0.76123C5.27572 0.828939 5.41113 0.922038 5.55078 1.04053L5.93799 1.35791C6.0988 1.49333 6.25326 1.59066 6.40137 1.6499C6.54948 1.70492 6.73145 1.73242 6.94727 1.73242H13.041C13.7012 1.73242 14.1984 1.89746 14.5327 2.22754C14.867 2.55762 15.0342 3.0485 15.0342 3.7002V4.18262H0.618652Z" fill="#12A3FF"/>
</svg>
