<svg width="16" height="15" viewBox="0 0 16 15" fill="none" xmlns="http://www.w3.org/2000/svg">
<path d="M1.60889 12.9585C1.09684 12.4465 0.756185 11.8836 0.586914 11.27C0.417643 10.6522 0.417643 10.0365 0.586914 9.42285C0.760417 8.80924 1.09896 8.24854 1.60254 7.74072L3.46875 5.88086C3.4349 6.08822 3.42855 6.30615 3.44971 6.53467C3.4751 6.75895 3.53223 6.97054 3.62109 7.16943L2.37695 8.41357C2.00879 8.78174 1.76335 9.18799 1.64062 9.63232C1.5179 10.0767 1.5179 10.5231 1.64062 10.9717C1.76335 11.416 2.00879 11.8244 2.37695 12.1968C2.74512 12.5649 3.15137 12.8083 3.5957 12.9268C4.04427 13.0495 4.49072 13.0495 4.93506 12.9268C5.37939 12.804 5.78564 12.5586 6.15381 12.1904L7.9502 10.4004C8.06445 10.2819 8.1639 10.1613 8.24854 10.0386C8.18506 10.3009 8.1512 10.5633 8.14697 10.8257C8.14274 11.0838 8.16178 11.3398 8.2041 11.5938L6.82666 12.9712C6.32308 13.479 5.76449 13.8175 5.15088 13.9868C4.53727 14.1561 3.92155 14.1561 3.30371 13.9868C2.6901 13.8175 2.12516 13.4748 1.60889 12.9585ZM6.42676 5.60791L7.271 4.75098C7.67725 4.82292 8.01579 4.92871 8.28662 5.06836C8.55745 5.20378 8.79232 5.37305 8.99121 5.57617C9.25781 5.83854 9.47575 6.11784 9.64502 6.41406C9.81852 6.71029 9.94759 7.01497 10.0322 7.32812C9.82487 7.47201 9.63444 7.63704 9.46094 7.82324C9.28743 8.00521 9.13509 8.2041 9.00391 8.41992C9.04622 8.05599 9.00179 7.69417 8.87061 7.33447C8.74365 6.97477 8.52783 6.64258 8.22314 6.33789C8.01579 6.13053 7.76823 5.96549 7.48047 5.84277C7.19694 5.72005 6.8457 5.64176 6.42676 5.60791ZM5.39209 9.15625C4.87581 8.64421 4.53304 8.08138 4.36377 7.46777C4.1945 6.84993 4.1945 6.23421 4.36377 5.62061C4.53727 5.007 4.87793 4.44629 5.38574 3.93848L7.55029 1.76758C8.05811 1.25977 8.61882 0.921224 9.23242 0.751953C9.84603 0.578451 10.4596 0.576335 11.0732 0.745605C11.6911 0.914876 12.2581 1.25765 12.7744 1.77393C13.2357 2.23942 13.5573 2.75358 13.7393 3.31641C13.9212 3.875 13.9614 4.43783 13.8599 5.00488C13.7625 5.56771 13.5234 6.0861 13.1426 6.56006L12.9712 6.74414C12.7596 6.70182 12.5226 6.6849 12.2603 6.69336C12.0021 6.70182 11.763 6.73145 11.543 6.78223L12.0063 6.31885C12.3745 5.95068 12.62 5.54443 12.7427 5.1001C12.8654 4.65576 12.8654 4.21143 12.7427 3.76709C12.62 3.31852 12.3745 2.91016 12.0063 2.54199C11.634 2.1696 11.2256 1.92415 10.7812 1.80566C10.3369 1.68294 9.89258 1.68294 9.44824 1.80566C9.00391 1.92839 8.59554 2.17383 8.22314 2.54199L6.15381 4.61133C5.78564 4.97949 5.5402 5.38574 5.41748 5.83008C5.29476 6.27441 5.29476 6.72087 5.41748 7.16943C5.5402 7.61377 5.78776 8.02214 6.16016 8.39453C6.34212 8.5765 6.55794 8.72884 6.80762 8.85156C7.05729 8.97428 7.35986 9.06527 7.71533 9.12451C7.58415 9.26416 7.45296 9.40592 7.32178 9.5498C7.19059 9.68945 7.05729 9.83122 6.92188 9.9751C6.56641 9.88623 6.26807 9.77409 6.02686 9.63867C5.78564 9.49902 5.57406 9.33822 5.39209 9.15625ZM12.2095 13.9805C11.7694 13.9805 11.3547 13.8958 10.9653 13.7266C10.576 13.5615 10.2332 13.3309 9.93701 13.0347C9.64079 12.7384 9.40804 12.3957 9.23877 12.0063C9.0695 11.617 8.98486 11.2002 8.98486 10.7559C8.98486 10.3115 9.0695 9.89681 9.23877 9.51172C9.40804 9.1224 9.64079 8.77962 9.93701 8.4834C10.2332 8.18294 10.576 7.9502 10.9653 7.78516C11.3547 7.61589 11.7694 7.53125 12.2095 7.53125C12.6538 7.53125 13.0706 7.61589 13.46 7.78516C13.8493 7.9502 14.1921 8.18083 14.4883 8.47705C14.7845 8.77327 15.0151 9.11605 15.1802 9.50537C15.3494 9.89469 15.4341 10.3115 15.4341 10.7559C15.4341 11.196 15.3494 11.6107 15.1802 12C15.0109 12.3893 14.776 12.7321 14.4756 13.0283C14.1794 13.3245 13.8366 13.5573 13.4473 13.7266C13.0579 13.8958 12.6453 13.9805 12.2095 13.9805ZM12.2095 12.7744C12.328 12.7744 12.4211 12.7384 12.4888 12.6665C12.5607 12.5946 12.5967 12.5015 12.5967 12.3872V11.1431H13.8408C13.9551 11.1431 14.0482 11.1092 14.1201 11.0415C14.1921 10.9696 14.228 10.8743 14.228 10.7559C14.228 10.6374 14.1921 10.5443 14.1201 10.4766C14.0482 10.4046 13.9551 10.3687 13.8408 10.3687H12.5967V9.12451C12.5967 9.01025 12.5607 8.91715 12.4888 8.84521C12.4211 8.77327 12.328 8.7373 12.2095 8.7373C12.091 8.7373 11.9958 8.77327 11.9238 8.84521C11.8561 8.91715 11.8223 9.01025 11.8223 9.12451V10.3687H10.5781C10.4639 10.3687 10.3708 10.4046 10.2988 10.4766C10.2269 10.5443 10.1909 10.6374 10.1909 10.7559C10.1909 10.8743 10.2269 10.9696 10.2988 11.0415C10.3708 11.1092 10.4639 11.1431 10.5781 11.1431H11.8223V12.3872C11.8223 12.5015 11.8561 12.5946 11.9238 12.6665C11.9958 12.7384 12.091 12.7744 12.2095 12.7744Z" fill="white"/>
</svg>
