<svg width="10" height="10" viewBox="0 0 10 10" fill="none" xmlns="http://www.w3.org/2000/svg">
<path d="M5.05952 3.06164C5.3613 3.11496 5.61279 3.19337 5.81397 3.29688C6.01516 3.39724 6.18962 3.5227 6.33737 3.67326C6.72088 4.05277 6.97551 4.4715 7.10125 4.92943C7.22699 5.38422 7.22542 5.83902 7.09654 6.29381C6.97079 6.7486 6.71931 7.16419 6.34209 7.54057L4.72945 9.1543C4.35537 9.52755 3.94042 9.7769 3.48461 9.90236C3.0288 10.031 2.57141 10.0325 2.11246 9.90707C1.65664 9.78161 1.23698 9.52755 0.85347 9.14489C0.473102 8.76538 0.220048 8.34822 0.0943061 7.89343C-0.0314354 7.4355 -0.0314354 6.97914 0.0943061 6.52434C0.223191 6.06955 0.474674 5.65396 0.848755 5.27758L2.23505 3.89909C2.20991 4.05277 2.20519 4.2143 2.22091 4.38368C2.23977 4.54991 2.28221 4.70674 2.34822 4.85415L1.42402 5.77629C1.15053 6.04916 0.96821 6.35027 0.877047 6.6796C0.785884 7.00893 0.785884 7.33983 0.877047 7.6723C0.96821 8.00164 1.15053 8.30431 1.42402 8.58032C1.69751 8.8532 1.99929 9.03355 2.32936 9.12137C2.66258 9.21233 2.99422 9.21233 3.32429 9.12137C3.65436 9.03041 3.95614 8.84849 4.22963 8.57562L5.77153 7.04187C6.04502 6.76899 6.22578 6.46789 6.31379 6.13855C6.40496 5.80922 6.40496 5.47989 6.31379 5.15055C6.22263 4.81808 6.04031 4.51384 5.76682 4.23783C5.61279 4.08414 5.42889 3.96182 5.21513 3.87086C5.00451 3.7799 4.7436 3.72187 4.43239 3.69678L5.05952 3.06164ZM4.94164 6.93836C4.63986 6.88504 4.38838 6.8082 4.18719 6.70783C3.98601 6.60432 3.81154 6.47729 3.66379 6.32674C3.28028 5.94723 3.02565 5.53007 2.89991 5.07528C2.77417 4.61735 2.77417 4.16098 2.89991 3.70619C3.0288 3.2514 3.28185 2.83581 3.65908 2.45943L5.267 0.8504C5.64422 0.474019 6.06074 0.223099 6.51655 0.0976383C6.97237 -0.0309585 7.42818 -0.0325267 7.88399 0.0929336C8.34295 0.218394 8.76418 0.472451 9.14769 0.855105C9.52806 1.23462 9.78112 1.65335 9.90686 2.11128C10.0326 2.56607 10.031 3.02086 9.90214 3.47566C9.7764 3.93045 9.52649 4.34604 9.15241 4.72242L7.76611 6.10091C7.79126 5.94723 7.7944 5.78726 7.77554 5.62103C7.75982 5.45479 7.71896 5.2964 7.65294 5.14585L8.57714 4.22371C8.85063 3.95084 9.03295 3.64973 9.12412 3.3204C9.21528 2.99107 9.21528 2.66173 9.12412 2.3324C9.03295 1.99993 8.85063 1.69726 8.57714 1.42438C8.30051 1.14837 7.99716 0.966451 7.66709 0.878629C7.33702 0.78767 7.00694 0.78767 6.67687 0.878629C6.3468 0.969587 6.04345 1.1515 5.76682 1.42438L4.22963 2.95813C3.95614 3.23101 3.77382 3.53211 3.68265 3.86145C3.59149 4.19078 3.59149 4.52168 3.68265 4.85415C3.77382 5.18349 3.95771 5.48616 4.23434 5.76217C4.38838 5.91586 4.5707 6.03818 4.78132 6.12914C4.99508 6.2201 5.25757 6.27813 5.56878 6.30322L4.94164 6.93836Z" fill="white"/>
</svg>
