<?xml version="1.0" encoding="utf-8"?>
<!-- Generator: Adobe Illustrator 25.0.1, SVG Export Plug-In . SVG Version: 6.00 Build 0)  -->
<svg version="1.1" id="图层_1" xmlns="http://www.w3.org/2000/svg" xmlns:xlink="http://www.w3.org/1999/xlink" x="0px" y="0px"
	 viewBox="0 0 20 20" enable-background="new 0 0 20 20" xml:space="preserve">
<path fill-rule="evenodd" clip-rule="evenodd" fill="#007AFF" d="M4.5,1.5c-1.7,0-3,1.3-3,3v11c0,1.7,1.3,3,3,3h11c1.7,0,3-1.3,3-3
	v-11c0-1.7-1.3-3-3-3H4.5z M7.8,15.3c0.7,0.3,1.4,0.4,2.1,0.4c0.7,0,1.4-0.1,2.1-0.4c0.4-0.2,0.7-0.4,1-0.6l0.9,0.9
	c0.1,0.1,0.2,0.2,0.3,0.2c0.1,0,0.2,0,0.3-0.1c0.1-0.1,0.1-0.2,0.1-0.3c0-0.1,0-0.2-0.1-0.3l-0.9-0.9c0.5-0.5,0.8-1,1.1-1.7
	c0.3-0.7,0.4-1.4,0.4-2.1c0-0.7-0.1-1.4-0.4-2.1c-0.3-0.7-0.7-1.2-1.2-1.7C13.2,6,12.7,5.6,12,5.3s-1.4-0.4-2.1-0.4
	C9.2,4.9,8.5,5,7.8,5.3C7.2,5.6,6.6,6,6.1,6.5C5.6,7,5.2,7.5,4.9,8.2c-0.3,0.7-0.4,1.3-0.4,2.1c0,0.7,0.1,1.4,0.4,2.1
	C5.2,13,5.6,13.6,6,14.1l-0.9,0.9C5.1,15,5,15.1,5,15.3c0,0.1,0,0.2,0.1,0.3c0.1,0.1,0.2,0.1,0.3,0.1c0.1,0,0.3-0.1,0.4-0.2l0.9-0.9
	C7.1,14.9,7.4,15.1,7.8,15.3z M9.9,11H7.5c-0.1,0-0.2,0-0.3-0.1C7.1,10.8,7,10.7,7,10.5c0-0.1,0-0.2,0.1-0.3
	c0.1-0.1,0.2-0.1,0.3-0.1h2V7.3c0-0.1,0-0.2,0.1-0.3c0.1-0.1,0.2-0.1,0.3-0.1c0.1,0,0.2,0,0.3,0.1c0.1,0.1,0.1,0.2,0.1,0.3v3.3
	c0,0.1,0,0.2-0.1,0.3C10.1,10.9,10,11,9.9,11z M5,6.3c0.1,0,0.1,0.1,0.2,0.1c0,0,0.1,0,0.1,0c0,0,0.1,0,0.1-0.1l2-1.5
	c0.1-0.1,0.1-0.2,0.1-0.3c0-0.1-0.1-0.2-0.2-0.3C7.3,4.1,7.1,4,7,4C6.8,3.9,6.6,3.9,6.4,3.9C6.1,3.9,5.9,4,5.6,4.1
	C5.4,4.3,5.2,4.5,5,4.7C4.9,4.9,4.8,5.2,4.8,5.5c0,0.1,0,0.2,0,0.3c0,0.1,0,0.2,0.1,0.3C4.9,6.2,5,6.2,5,6.3z M14.5,6.3
	c0,0,0.1,0,0.1,0c0.1,0,0.1,0,0.2-0.1c0.1,0,0.1-0.1,0.1-0.2C15,6,15,5.9,15,5.8c0-0.1,0-0.2,0-0.3c0-0.3-0.1-0.6-0.2-0.8
	c-0.1-0.2-0.3-0.4-0.6-0.6C14,4,13.7,3.9,13.4,3.9c-0.2,0-0.4,0-0.5,0.1c-0.2,0.1-0.3,0.1-0.4,0.2c-0.1,0.1-0.2,0.2-0.2,0.3
	c0,0.1,0.1,0.2,0.2,0.3l2,1.5C14.4,6.3,14.4,6.3,14.5,6.3z"/>
</svg>
