<svg width="10" height="14" viewBox="0 0 10 14" fill="none" xmlns="http://www.w3.org/2000/svg">
<path d="M1.5154 13.8602C1.03886 13.8602 0.667158 13.722 0.400295 13.4456C0.133432 13.1692 0 12.7737 0 12.259V7.15527C0 6.6406 0.133432 6.24508 0.400295 5.96868C0.667158 5.69229 1.03886 5.55409 1.5154 5.55409H8.1846C8.6659 5.55409 9.03761 5.69229 9.2997 5.96868C9.56657 6.24508 9.7 6.6406 9.7 7.15527V12.259C9.7 12.7737 9.56657 13.1692 9.2997 13.4456C9.03761 13.722 8.6659 13.8602 8.1846 13.8602H1.5154ZM1.5297 13.031H8.17745C8.37283 13.031 8.52771 12.9667 8.64208 12.838C8.75645 12.7094 8.81363 12.5354 8.81363 12.3162V7.09094C8.81363 6.87173 8.75645 6.70017 8.64208 6.57627C8.52771 6.45237 8.37283 6.39042 8.17745 6.39042H1.5297C1.33432 6.39042 1.17944 6.45237 1.06507 6.57627C0.9507 6.70017 0.893515 6.87173 0.893515 7.09094V12.3162C0.893515 12.5354 0.9507 12.7094 1.06507 12.838C1.17944 12.9667 1.33432 13.031 1.5297 13.031ZM1.27951 5.96868V3.88858C1.27951 3.04987 1.44154 2.3422 1.76559 1.76559C2.0944 1.18421 2.52805 0.745787 3.06654 0.450332C3.6098 0.150111 4.2031 0 4.84643 0C5.49452 0 6.0902 0.150111 6.63346 0.450332C7.17671 0.745787 7.61037 1.18421 7.93441 1.76559C8.25846 2.3422 8.42049 3.04987 8.42049 3.88858V5.96868H7.55556V3.79565C7.55556 3.17615 7.43405 2.6448 7.19101 2.20162C6.94797 1.75844 6.62393 1.42009 6.21886 1.18659C5.8138 0.948317 5.35633 0.829182 4.84643 0.829182C4.34606 0.829182 3.89096 0.948317 3.48113 1.18659C3.07607 1.42009 2.75441 1.75844 2.51614 2.20162C2.27787 2.6448 2.15873 3.17615 2.15873 3.79565V5.96868H1.27951Z" fill="white" fill-opacity="0.7"/>
</svg>
