<svg width="12" height="12" viewBox="0 0 12 12" fill="none" xmlns="http://www.w3.org/2000/svg">
<path d="M5.9971 11.9942C5.17658 11.9942 4.40445 11.8374 3.6807 11.5239C2.95694 11.2143 2.31834 10.7828 1.76488 10.2293C1.21529 9.67586 0.783745 9.03725 0.470247 8.3135C0.156749 7.58974 0 6.81761 0 5.9971C0 5.17658 0.156749 4.40445 0.470247 3.6807C0.783745 2.95694 1.21529 2.32027 1.76488 1.77068C2.31834 1.21722 2.95501 0.783745 3.67489 0.470247C4.39865 0.156749 5.17078 0 5.99129 0C6.81568 0 7.58974 0.156749 8.3135 0.470247C9.03725 0.783745 9.67586 1.21722 10.2293 1.77068C10.7828 2.32027 11.2163 2.95694 11.5298 3.6807C11.8433 4.40445 12 5.17658 12 5.9971C12 6.81761 11.8433 7.58974 11.5298 8.3135C11.2163 9.03725 10.7828 9.67586 10.2293 10.2293C9.67586 10.7828 9.03725 11.2143 8.3135 11.5239C7.58974 11.8374 6.81761 11.9942 5.9971 11.9942ZM5.9971 10.8099C6.66667 10.8099 7.29173 10.686 7.87228 10.4383C8.45283 10.1906 8.96372 9.84615 9.40493 9.40493C9.84615 8.96372 10.1906 8.45283 10.4383 7.87228C10.686 7.29173 10.8099 6.66667 10.8099 5.9971C10.8099 5.3314 10.686 4.70827 10.4383 4.12772C10.1906 3.5433 9.84615 3.03048 9.40493 2.58926C8.96372 2.14804 8.4509 1.80358 7.86647 1.55588C7.28592 1.30818 6.66086 1.18432 5.99129 1.18432C5.32559 1.18432 4.70053 1.30818 4.11611 1.55588C3.53556 1.80358 3.02661 2.14804 2.58926 2.58926C2.15191 3.03048 1.80939 3.5433 1.56168 4.12772C1.31398 4.70827 1.19013 5.3314 1.19013 5.9971C1.19013 6.66667 1.31398 7.29173 1.56168 7.87228C1.80939 8.45283 2.15191 8.96372 2.58926 9.40493C3.03048 9.84615 3.54136 10.1906 4.12192 10.4383C4.70634 10.686 5.3314 10.8099 5.9971 10.8099ZM3.62845 8.54572C3.5046 8.54572 3.4001 8.50508 3.31495 8.4238C3.23367 8.34252 3.19303 8.23996 3.19303 8.11611V3.87228C3.19303 3.74843 3.23367 3.64586 3.31495 3.56459C3.4001 3.48331 3.5046 3.44267 3.62845 3.44267C3.74843 3.44267 3.84906 3.48331 3.93033 3.56459C4.01548 3.64586 4.05806 3.74843 4.05806 3.87228V8.11611C4.05806 8.23996 4.01548 8.34252 3.93033 8.4238C3.84906 8.50508 3.74843 8.54572 3.62845 8.54572ZM9.58491 5.9971C9.58491 6.12869 9.54427 6.23706 9.46299 6.32221C9.38171 6.40348 9.27528 6.44412 9.14369 6.44412H6.7344L5.73585 6.36865L6.78084 7.29753L7.14659 7.64586C7.18916 7.68457 7.22206 7.73101 7.24528 7.7852C7.26851 7.83551 7.28012 7.89357 7.28012 7.95936C7.28012 8.08321 7.23948 8.18384 7.1582 8.26125C7.08079 8.33865 6.97823 8.37736 6.85051 8.37736C6.80019 8.37736 6.74407 8.36381 6.68215 8.33672C6.62409 8.30963 6.57184 8.27673 6.5254 8.23803L4.60377 6.32221C4.50702 6.23319 4.45864 6.12482 4.45864 5.9971C4.45864 5.87712 4.50702 5.76875 4.60377 5.67199L6.5312 3.75036C6.62022 3.66134 6.72666 3.61684 6.85051 3.61684C6.97049 3.61684 7.07112 3.65554 7.15239 3.73295C7.23754 3.80648 7.28012 3.90711 7.28012 4.03483C7.28012 4.09289 7.26851 4.14901 7.24528 4.20319C7.22593 4.25738 7.19303 4.30576 7.14659 4.34833L6.78665 4.70827L5.74165 5.62554L6.7344 5.56749H9.14369C9.27528 5.56749 9.38171 5.60813 9.46299 5.6894C9.54427 5.76681 9.58491 5.86938 9.58491 5.9971Z" fill="#606266"/>
</svg>
