<svg width="12" height="12" viewBox="0 0 12 12" fill="none" xmlns="http://www.w3.org/2000/svg">
<path d="M5.9971 11.9942C5.17658 11.9942 4.40445 11.8374 3.6807 11.5239C2.95694 11.2143 2.31834 10.7828 1.76488 10.2293C1.21529 9.67586 0.783745 9.03725 0.470247 8.3135C0.156749 7.58974 0 6.81761 0 5.9971C0 5.17658 0.156749 4.40445 0.470247 3.6807C0.783745 2.95694 1.21529 2.32027 1.76488 1.77068C2.31834 1.21722 2.95501 0.783745 3.67489 0.470247C4.39865 0.156749 5.17078 0 5.99129 0C6.81568 0 7.58974 0.156749 8.3135 0.470247C9.03725 0.783745 9.67586 1.21722 10.2293 1.77068C10.7828 2.32027 11.2163 2.95694 11.5298 3.6807C11.8433 4.40445 12 5.17658 12 5.9971C12 6.81761 11.8433 7.58974 11.5298 8.3135C11.2163 9.03725 10.7828 9.67586 10.2293 10.2293C9.67586 10.7828 9.03725 11.2143 8.3135 11.5239C7.58974 11.8374 6.81761 11.9942 5.9971 11.9942ZM2.88534 5.99129C2.88534 6.14611 2.95307 6.28931 3.08853 6.4209L5.13208 8.43541C5.2327 8.53604 5.35462 8.58636 5.49782 8.58636C5.64103 8.58636 5.75907 8.53991 5.85196 8.44702C5.94485 8.35027 5.99129 8.23028 5.99129 8.08708C5.99129 7.93614 5.93711 7.81229 5.82874 7.71553L5.10305 7.02467L4.418 6.47315L5.66618 6.5312H8.60377C8.75472 6.5312 8.8805 6.48089 8.98113 6.38026C9.08176 6.27576 9.13208 6.14611 9.13208 5.99129C9.13208 5.83261 9.08176 5.70295 8.98113 5.60232C8.8805 5.49782 8.75472 5.44557 8.60377 5.44557H5.66618L4.4238 5.50363L5.10885 4.95791L5.82874 4.26125C5.93711 4.15675 5.99129 4.03483 5.99129 3.8955C5.99129 3.7523 5.94485 3.63425 5.85196 3.54136C5.75907 3.44848 5.64103 3.40203 5.49782 3.40203C5.35075 3.40203 5.22883 3.45041 5.13208 3.54717L3.08853 5.56168C2.95307 5.69327 2.88534 5.83648 2.88534 5.99129Z" fill="#007AFF"/>
</svg>
