<svg t="1711981647685" class="icon" viewBox="0 0 1024 1024" version="1.1" xmlns="http://www.w3.org/2000/svg" p-id="4306" xmlns:xlink="http://www.w3.org/1999/xlink" width="200" height="200"><path d="M512 981.333333C253.866667 981.333333 42.666667 770.133333 42.666667 512S253.866667 42.666667 512 42.666667s469.333333 211.2 469.333333 469.333333-211.2 469.333333-469.333333 469.333333z m0-853.333333C300.8 128 128 300.8 128 512s172.8 384 384 384 384-172.8 384-384S723.2 128 512 128z" fill="#000000" p-id="4307"></path><path d="M597.333333 640c-10.666667 0-21.333333-4.266667-29.866666-12.8-17.066667-17.066667-17.066667-42.666667 0-59.733333l55.466666-55.466667-55.466666-55.466667c-17.066667-17.066667-17.066667-42.666667 0-59.733333 17.066667-17.066667 42.666667-17.066667 59.733333 0l85.333333 85.333333c17.066667 17.066667 17.066667 42.666667 0 59.733334l-85.333333 85.333333c-8.533333 8.533333-19.2 12.8-29.866667 12.8z m-170.666666 0c-10.666667 0-21.333333-4.266667-29.866667-12.8l-85.333333-85.333333c-17.066667-17.066667-17.066667-42.666667 0-59.733334l85.333333-85.333333c17.066667-17.066667 42.666667-17.066667 59.733333 0 17.066667 17.066667 17.066667 42.666667 0 59.733333L401.066667 512l55.466666 55.466667c17.066667 17.066667 17.066667 42.666667 0 59.733333-8.533333 8.533333-19.2 12.8-29.866666 12.8z" fill="#000000" p-id="4308"></path></svg>