<svg width="17" height="17" viewBox="0 0 17 17" fill="none" xmlns="http://www.w3.org/2000/svg">
<g clip-path="url(#clip0_1673_1665)">
<mask id="mask0_1673_1665" style="mask-type:luminance" maskUnits="userSpaceOnUse" x="0" y="0" width="62" height="17">
<path fill-rule="evenodd" clip-rule="evenodd" d="M0 17H61.9578V0H0V17Z" fill="white"/>
</mask>
<g mask="url(#mask0_1673_1665)">
<path fill-rule="evenodd" clip-rule="evenodd" d="M13.9275 3.4C13.057 1.54063 10.9064 0 8.44857 0C7.16845 0 5.17146 0.478125 3.73773 2.28438C2.76483 3.50625 2.4064 4.94063 2.61122 6.375C2.76483 7.38438 3.27688 8.65938 4.04495 9.50937C4.35218 7.4375 5.37628 5.79063 6.75881 4.56875C9.26785 2.60313 11.9817 2.70938 13.9275 3.4Z" fill="#12A3FF"/>
</g>
<mask id="mask1_1673_1665" style="mask-type:luminance" maskUnits="userSpaceOnUse" x="0" y="0" width="62" height="17">
<path fill-rule="evenodd" clip-rule="evenodd" d="M0 17H61.9578V0H0V17Z" fill="white"/>
</mask>
<g mask="url(#mask1_1673_1665)">
<path fill-rule="evenodd" clip-rule="evenodd" d="M15.8735 6.53432C14.3373 4.46245 11.6747 3.87808 9.26807 4.83432C9.37048 4.83432 9.42168 4.88745 9.52409 4.88745C13.0572 6.16245 15.003 10.1468 13.8253 13.8124C13.5181 14.7687 13.006 15.6187 12.3916 16.3624C13.1596 16.1499 13.9277 15.8312 14.5934 15.2999C17.256 13.0687 17.7681 9.13745 15.8735 6.53432Z" fill="#12A3FF"/>
</g>
<mask id="mask2_1673_1665" style="mask-type:luminance" maskUnits="userSpaceOnUse" x="0" y="0" width="62" height="17">
<path fill-rule="evenodd" clip-rule="evenodd" d="M0 17H61.9578V0H0V17Z" fill="white"/>
</mask>
<g mask="url(#mask2_1673_1665)">
<path fill-rule="evenodd" clip-rule="evenodd" d="M8.449 13.1219C7.88575 13.1219 7.3737 13.0687 6.86165 12.9625C6.81045 12.9625 6.75924 12.9625 6.65683 12.9625C6.50322 12.9625 6.3496 13.0156 6.24719 13.1219L4.60864 14.1844C4.55744 14.2375 4.50623 14.2375 4.45503 14.2375C4.30141 14.2375 4.199 14.1312 4.199 13.9719C4.199 13.9187 4.199 13.8125 4.25021 13.7594C4.25021 13.7062 4.45503 12.9094 4.55744 12.3781C4.55744 12.325 4.55744 12.2719 4.55744 12.2188C4.55744 12.0594 4.45503 11.9 4.30141 11.7938C2.56045 10.5719 1.38274 8.60625 1.07551 6.64062C0.614665 7.33125 0.409845 7.91562 0.153821 8.76562C-0.716661 11.8469 1.17792 15.5656 4.199 16.6281C7.68093 17.7969 11.0604 16.4688 12.187 13.3875C12.3406 13.0156 12.4942 12.3781 12.4942 11.8469C11.3677 12.6969 10.0876 13.1219 8.449 13.1219Z" fill="#12A3FF"/>
</g>
</g>
<defs>
<clipPath id="clip0_1673_1665">
<rect width="17" height="17" fill="white"/>
</clipPath>
</defs>
</svg>
