<svg width="13" height="13" viewBox="0 0 13 13" fill="none" xmlns="http://www.w3.org/2000/svg">
<path d="M1.83105 5.90283C1.42904 5.90283 1.12646 5.80127 0.92334 5.59814C0.720215 5.39079 0.618652 5.07764 0.618652 4.65869V1.82129C0.618652 1.40234 0.720215 1.09131 0.92334 0.888184C1.12646 0.685059 1.42904 0.583496 1.83105 0.583496H4.72559C5.1276 0.583496 5.43018 0.685059 5.6333 0.888184C5.83643 1.09131 5.93799 1.40234 5.93799 1.82129V4.65869C5.93799 5.07764 5.83643 5.39079 5.6333 5.59814C5.43018 5.80127 5.1276 5.90283 4.72559 5.90283H1.83105ZM1.84375 5.00781H4.70654C4.81657 5.00781 4.89909 4.97819 4.9541 4.91895C5.01335 4.8597 5.04297 4.77295 5.04297 4.65869V1.82129C5.04297 1.70703 5.01335 1.6224 4.9541 1.56738C4.89909 1.50814 4.81657 1.47852 4.70654 1.47852H1.84375C1.73372 1.47852 1.6512 1.50814 1.59619 1.56738C1.54118 1.6224 1.51367 1.70703 1.51367 1.82129V4.65869C1.51367 4.77295 1.54118 4.8597 1.59619 4.91895C1.6512 4.97819 1.73372 5.00781 1.84375 5.00781ZM2.73242 3.90967C2.64779 3.90967 2.60547 3.861 2.60547 3.76367V2.70996C2.60547 2.61686 2.64779 2.57031 2.73242 2.57031H3.81787C3.90251 2.57031 3.94482 2.61686 3.94482 2.70996V3.76367C3.94482 3.861 3.90251 3.90967 3.81787 3.90967H2.73242ZM8.2041 5.90283C7.79785 5.90283 7.49316 5.80127 7.29004 5.59814C7.08691 5.39079 6.98535 5.07764 6.98535 4.65869V1.82129C6.98535 1.40234 7.08691 1.09131 7.29004 0.888184C7.49316 0.685059 7.79785 0.583496 8.2041 0.583496H11.0923C11.4943 0.583496 11.7969 0.685059 12 0.888184C12.2031 1.09131 12.3047 1.40234 12.3047 1.82129V4.65869C12.3047 5.07764 12.2031 5.39079 12 5.59814C11.7969 5.80127 11.4943 5.90283 11.0923 5.90283H8.2041ZM8.2168 5.00781H11.0796C11.1938 5.00781 11.2764 4.97819 11.3271 4.91895C11.3822 4.8597 11.4097 4.77295 11.4097 4.65869V1.82129C11.4097 1.70703 11.3822 1.6224 11.3271 1.56738C11.2764 1.50814 11.1938 1.47852 11.0796 1.47852H8.2168C8.10254 1.47852 8.0179 1.50814 7.96289 1.56738C7.90788 1.6224 7.88037 1.70703 7.88037 1.82129V4.65869C7.88037 4.77295 7.90788 4.8597 7.96289 4.91895C8.0179 4.97819 8.10254 5.00781 8.2168 5.00781ZM9.13721 3.90967C9.0568 3.90967 9.0166 3.861 9.0166 3.76367V2.70996C9.0166 2.61686 9.0568 2.57031 9.13721 2.57031H10.2227C10.3115 2.57031 10.356 2.61686 10.356 2.70996V3.76367C10.356 3.861 10.3115 3.90967 10.2227 3.90967H9.13721ZM1.83105 12.2695C1.42904 12.2695 1.12646 12.168 0.92334 11.9648C0.720215 11.7617 0.618652 11.4507 0.618652 11.0317V8.18799C0.618652 7.77327 0.720215 7.46436 0.92334 7.26123C1.12646 7.05387 1.42904 6.9502 1.83105 6.9502H4.72559C5.1276 6.9502 5.43018 7.05387 5.6333 7.26123C5.83643 7.46436 5.93799 7.77327 5.93799 8.18799V11.0317C5.93799 11.4507 5.83643 11.7617 5.6333 11.9648C5.43018 12.168 5.1276 12.2695 4.72559 12.2695H1.83105ZM1.84375 11.3745H4.70654C4.81657 11.3745 4.89909 11.3449 4.9541 11.2856C5.01335 11.2306 5.04297 11.146 5.04297 11.0317V8.19434C5.04297 8.07585 5.01335 7.9891 4.9541 7.93408C4.89909 7.87484 4.81657 7.84521 4.70654 7.84521H1.84375C1.73372 7.84521 1.6512 7.87484 1.59619 7.93408C1.54118 7.9891 1.51367 8.07585 1.51367 8.19434V11.0317C1.51367 11.146 1.54118 11.2306 1.59619 11.2856C1.6512 11.3449 1.73372 11.3745 1.84375 11.3745ZM2.73242 10.2827C2.64779 10.2827 2.60547 10.2319 2.60547 10.1304V9.08301C2.60547 8.98991 2.64779 8.94336 2.73242 8.94336H3.81787C3.90251 8.94336 3.94482 8.98991 3.94482 9.08301V10.1304C3.94482 10.2319 3.90251 10.2827 3.81787 10.2827H2.73242ZM7.41699 8.59424C7.33236 8.59424 7.29004 8.54557 7.29004 8.44824V7.39453C7.29004 7.30143 7.33236 7.25488 7.41699 7.25488H8.50244C8.58708 7.25488 8.62939 7.30143 8.62939 7.39453V8.44824C8.62939 8.54557 8.58708 8.59424 8.50244 8.59424H7.41699ZM10.7876 8.59424C10.703 8.59424 10.6606 8.54557 10.6606 8.44824V7.39453C10.6606 7.30143 10.703 7.25488 10.7876 7.25488H11.873C11.9577 7.25488 12 7.30143 12 7.39453V8.44824C12 8.54557 11.9577 8.59424 11.873 8.59424H10.7876ZM9.11816 10.2827C9.03353 10.2827 8.99121 10.2319 8.99121 10.1304V9.08301C8.99121 8.98991 9.03353 8.94336 9.11816 8.94336H10.2036C10.2882 8.94336 10.3306 8.98991 10.3306 9.08301V10.1304C10.3306 10.2319 10.2882 10.2827 10.2036 10.2827H9.11816ZM7.41699 11.9648C7.33236 11.9648 7.29004 11.9162 7.29004 11.8188V10.7651C7.29004 10.672 7.33236 10.6255 7.41699 10.6255H8.50244C8.58708 10.6255 8.62939 10.672 8.62939 10.7651V11.8188C8.62939 11.9162 8.58708 11.9648 8.50244 11.9648H7.41699ZM10.7876 11.9648C10.703 11.9648 10.6606 11.9162 10.6606 11.8188V10.7651C10.6606 10.672 10.703 10.6255 10.7876 10.6255H11.873C11.9577 10.6255 12 10.672 12 10.7651V11.8188C12 11.9162 11.9577 11.9648 11.873 11.9648H10.7876Z" fill="white" fill-opacity="0.85"/>
</svg>
