<?xml version="1.0" encoding="utf-8"?>
<!-- Generator: Adobe Illustrator 25.0.1, SVG Export Plug-In . SVG Version: 6.00 Build 0)  -->
<svg version="1.1" id="图层_1" xmlns="http://www.w3.org/2000/svg" xmlns:xlink="http://www.w3.org/1999/xlink" x="0px" y="0px"
	 viewBox="0 0 20 21" enable-background="new 0 0 20 21" xml:space="preserve">
<g>
	<defs>
		<rect id="SVGID_1_" x="0.4" y="0.9" width="19.2" height="19.2"/>
	</defs>
	<clipPath id="SVGID_2_">
		<use xlink:href="#SVGID_1_"  overflow="visible"/>
	</clipPath>
	<g clip-path="url(#SVGID_2_)">
		<path fill="#007AFF" d="M2.6,16.7v-5.2H9v7.4H4.9c-0.7,0-1.3-0.2-1.7-0.6S2.6,17.4,2.6,16.7z M10.7,18.9v-7.4h6.5v5.2
			c0,0.7-0.2,1.3-0.6,1.7c-0.4,0.4-1,0.6-1.7,0.6H10.7z M1.4,9V7.1c0-0.5,0.1-0.9,0.4-1.1C2.1,5.8,2.5,5.6,3,5.6h1.7
			C4.5,5.4,4.3,5.1,4.2,4.8C4,4.5,4,4.1,4,3.8c0-0.6,0.1-1.1,0.4-1.5c0.3-0.4,0.6-0.8,1.1-1C6,1,6.5,0.9,7.1,0.9
			c0.6,0,1.2,0.2,1.7,0.5c0.5,0.3,0.9,0.8,1.1,1.4c0.2-0.6,0.6-1.1,1.1-1.4C11.5,1,12,0.9,12.7,0.9c0.6,0,1.1,0.1,1.6,0.4
			c0.5,0.2,0.8,0.6,1.1,1c0.3,0.4,0.4,0.9,0.4,1.5c0,0.4-0.1,0.7-0.2,1c-0.1,0.3-0.3,0.6-0.6,0.8h1.7c0.5,0,0.9,0.1,1.2,0.4
			c0.3,0.2,0.4,0.6,0.4,1.1V9c0,0.5-0.1,0.8-0.4,1c-0.3,0.2-0.6,0.3-1.1,0.3h-6.2V5.6H12c0.7,0,1.2-0.2,1.5-0.5
			c0.4-0.3,0.6-0.7,0.6-1.2c0-0.5-0.1-0.8-0.4-1.1c-0.3-0.3-0.7-0.4-1.1-0.4c-0.5,0-0.9,0.2-1.3,0.5c-0.4,0.4-0.5,0.8-0.5,1.4v1.2H9
			V4.5C9,3.9,8.9,3.4,8.5,3C8.2,2.7,7.7,2.5,7.2,2.5c-0.5,0-0.9,0.1-1.1,0.4C5.8,3.1,5.6,3.5,5.6,3.9c0,0.5,0.2,0.9,0.5,1.2
			c0.4,0.3,0.9,0.5,1.6,0.5H9v4.8H2.9c-0.5,0-0.9-0.1-1.1-0.3C1.5,9.9,1.4,9.5,1.4,9z"/>
	</g>
</g>
</svg>
