<svg width="12" height="11" viewBox="0 0 12 11" fill="none" xmlns="http://www.w3.org/2000/svg">
<path d="M2.48438 10.7383C2.02539 10.7383 1.67546 10.6211 1.43457 10.3867C1.19694 10.1556 1.07812 9.81055 1.07812 9.35156L2.85059 7.81836C2.9515 7.73047 3.05078 7.66374 3.14844 7.61816C3.24935 7.57259 3.35189 7.5498 3.45605 7.5498C3.56999 7.5498 3.67904 7.57259 3.7832 7.61816C3.89062 7.66374 3.99316 7.7321 4.09082 7.82324L4.94043 8.58008L7.06445 6.70508C7.17513 6.60742 7.28743 6.53743 7.40137 6.49512C7.51855 6.44954 7.64225 6.42676 7.77246 6.42676C7.89941 6.42676 8.02474 6.45117 8.14844 6.5C8.27214 6.54557 8.38444 6.61556 8.48535 6.70996L10.9219 9.01465V9.35156C10.9219 9.81055 10.8031 10.1556 10.5654 10.3867C10.3278 10.6211 9.97949 10.7383 9.52051 10.7383H2.48438ZM4.55957 6.82715C4.35449 6.82715 4.16732 6.77669 3.99805 6.67578C3.82878 6.57161 3.69368 6.4349 3.59277 6.26562C3.49512 6.0931 3.44629 5.90592 3.44629 5.7041C3.44629 5.50228 3.49512 5.31673 3.59277 5.14746C3.69368 4.97819 3.82878 4.8431 3.99805 4.74219C4.16732 4.64128 4.35449 4.59082 4.55957 4.59082C4.76465 4.59082 4.95182 4.64128 5.12109 4.74219C5.29036 4.8431 5.42546 4.97819 5.52637 5.14746C5.62728 5.31673 5.67773 5.50228 5.67773 5.7041C5.67773 5.90592 5.62728 6.0931 5.52637 6.26562C5.42546 6.4349 5.29036 6.57161 5.12109 6.67578C4.95182 6.77669 4.76465 6.82715 4.55957 6.82715ZM2.41602 10.875C1.90495 10.875 1.52083 10.748 1.26367 10.4941C1.00977 10.2435 0.882812 9.86589 0.882812 9.36133V4.34668C0.882812 3.84212 1.00977 3.46452 1.26367 3.21387C1.52083 2.95996 1.90495 2.83301 2.41602 2.83301H9.5791C10.0869 2.83301 10.4694 2.95996 10.7266 3.21387C10.9837 3.46777 11.1123 3.84538 11.1123 4.34668V9.36133C11.1123 9.86263 10.9837 10.2402 10.7266 10.4941C10.4694 10.748 10.0869 10.875 9.5791 10.875H2.41602ZM2.42578 10.0889H9.56445C9.80534 10.0889 9.99251 10.0238 10.126 9.89355C10.2594 9.76335 10.3262 9.57129 10.3262 9.31738V4.39062C10.3262 4.13672 10.2594 3.94466 10.126 3.81445C9.99251 3.68424 9.80534 3.61914 9.56445 3.61914H2.42578C2.18164 3.61914 1.99447 3.68424 1.86426 3.81445C1.73405 3.94466 1.66895 4.13672 1.66895 4.39062V9.31738C1.66895 9.57129 1.73405 9.76335 1.86426 9.89355C1.99447 10.0238 2.18164 10.0889 2.42578 10.0889ZM1.91309 2.04688C1.94889 1.82552 2.02539 1.65625 2.14258 1.53906C2.25977 1.41862 2.44043 1.3584 2.68457 1.3584H9.31543C9.55957 1.3584 9.73861 1.41862 9.85254 1.53906C9.96973 1.65625 10.0479 1.82552 10.0869 2.04688H1.91309ZM2.91895 0.694336C2.93197 0.486003 2.99707 0.329753 3.11426 0.225586C3.2347 0.118164 3.40723 0.0644531 3.63184 0.0644531H8.36328C8.58789 0.0644531 8.75879 0.118164 8.87598 0.225586C8.99642 0.329753 9.06478 0.486003 9.08105 0.694336H2.91895Z" fill="black"/>
</svg>
