<svg width="14" height="15" viewBox="0 0 14 15" fill="none" xmlns="http://www.w3.org/2000/svg">
<path d="M2.70068 14.2598C2.104 14.2598 1.64909 14.1074 1.33594 13.8027C1.02702 13.5023 0.872559 13.0537 0.872559 12.457L3.17676 10.4639C3.30794 10.3496 3.43701 10.2629 3.56396 10.2036C3.69515 10.1444 3.82845 10.1147 3.96387 10.1147C4.11198 10.1147 4.25374 10.1444 4.38916 10.2036C4.52881 10.2629 4.66211 10.3517 4.78906 10.4702L5.89355 11.4541L8.65479 9.0166C8.79867 8.88965 8.94466 8.79867 9.09277 8.74365C9.24512 8.68441 9.40592 8.65479 9.5752 8.65479C9.74023 8.65479 9.90316 8.68652 10.064 8.75C10.2248 8.80924 10.3708 8.90023 10.502 9.02295L13.6694 12.019V12.457C13.6694 13.0537 13.515 13.5023 13.2061 13.8027C12.8971 14.1074 12.4443 14.2598 11.8477 14.2598H2.70068ZM5.39844 9.17529C5.13184 9.17529 4.88851 9.1097 4.66846 8.97852C4.4484 8.8431 4.27279 8.66536 4.1416 8.44531C4.01465 8.22103 3.95117 7.9777 3.95117 7.71533C3.95117 7.45296 4.01465 7.21175 4.1416 6.9917C4.27279 6.77165 4.4484 6.59603 4.66846 6.46484C4.88851 6.33366 5.13184 6.26807 5.39844 6.26807C5.66504 6.26807 5.90837 6.33366 6.12842 6.46484C6.34847 6.59603 6.52409 6.77165 6.65527 6.9917C6.78646 7.21175 6.85205 7.45296 6.85205 7.71533C6.85205 7.9777 6.78646 8.22103 6.65527 8.44531C6.52409 8.66536 6.34847 8.8431 6.12842 8.97852C5.90837 9.1097 5.66504 9.17529 5.39844 9.17529ZM2.61182 14.4375C1.94743 14.4375 1.44808 14.2725 1.11377 13.9424C0.783691 13.6165 0.618652 13.1257 0.618652 12.4697V5.95068C0.618652 5.29476 0.783691 4.80387 1.11377 4.47803C1.44808 4.14795 1.94743 3.98291 2.61182 3.98291H11.9238C12.584 3.98291 13.0812 4.14795 13.4155 4.47803C13.7498 4.80811 13.917 5.29899 13.917 5.95068V12.4697C13.917 13.1214 13.7498 13.6123 13.4155 13.9424C13.0812 14.2725 12.584 14.4375 11.9238 14.4375H2.61182ZM2.62451 13.4155H11.9048C12.2179 13.4155 12.4613 13.3309 12.6348 13.1616C12.8083 12.9924 12.895 12.7427 12.895 12.4126V6.00781C12.895 5.67773 12.8083 5.42806 12.6348 5.25879C12.4613 5.08952 12.2179 5.00488 11.9048 5.00488H2.62451C2.30713 5.00488 2.0638 5.08952 1.89453 5.25879C1.72526 5.42806 1.64062 5.67773 1.64062 6.00781V12.4126C1.64062 12.7427 1.72526 12.9924 1.89453 13.1616C2.0638 13.3309 2.30713 13.4155 2.62451 13.4155ZM1.95801 2.96094C2.00456 2.67318 2.104 2.45312 2.25635 2.30078C2.40869 2.14421 2.64355 2.06592 2.96094 2.06592H11.5811C11.8984 2.06592 12.1312 2.14421 12.2793 2.30078C12.4316 2.45312 12.5332 2.67318 12.584 2.96094H1.95801ZM3.26562 1.20264C3.28255 0.931803 3.36719 0.728678 3.51953 0.593262C3.67611 0.453613 3.90039 0.383789 4.19238 0.383789H10.3433C10.6353 0.383789 10.8574 0.453613 11.0098 0.593262C11.1663 0.728678 11.2552 0.931803 11.2764 1.20264H3.26562Z" fill="#007AFF"/>
</svg>
