<svg width="15" height="14" viewBox="0 0 15 14" fill="none" xmlns="http://www.w3.org/2000/svg">
<path d="M1.52885 14C1.04808 14 0.673077 13.8604 0.403846 13.5812C0.134615 13.302 0 12.9025 0 12.3827V7.22744C0 6.70758 0.134615 6.30806 0.403846 6.02888C0.673077 5.7497 1.04808 5.61011 1.52885 5.61011H8.25721C8.74279 5.61011 9.11779 5.7497 9.38221 6.02888C9.65144 6.30806 9.78606 6.70758 9.78606 7.22744V12.3827C9.78606 12.9025 9.65144 13.302 9.38221 13.5812C9.11779 13.8604 8.74279 14 8.25721 14H1.52885ZM1.54327 13.1625H8.25C8.44711 13.1625 8.60336 13.0975 8.71875 12.9675C8.83414 12.8375 8.89183 12.6619 8.89183 12.4404V7.16246C8.89183 6.94104 8.83414 6.76775 8.71875 6.6426C8.60336 6.51745 8.44711 6.45487 8.25 6.45487H1.54327C1.34615 6.45487 1.1899 6.51745 1.07452 6.6426C0.959135 6.76775 0.901442 6.94104 0.901442 7.16246V12.4404C0.901442 12.6619 0.959135 12.8375 1.07452 12.9675C1.1899 13.0975 1.34615 13.1625 1.54327 13.1625ZM7.79567 6.0361V3.93502C7.79567 3.08785 7.95913 2.37304 8.28606 1.79061C8.61298 1.20337 9.05048 0.758123 9.59856 0.454874C10.1466 0.151625 10.7452 0 11.3942 0C12.0481 0 12.6466 0.151625 13.1899 0.454874C13.738 0.758123 14.1755 1.20337 14.5024 1.79061C14.8341 2.37304 15 3.08785 15 3.93502V5.4296C15 5.59326 14.9543 5.716 14.863 5.79783C14.7764 5.87485 14.6755 5.91336 14.5601 5.91336C14.4399 5.91336 14.3365 5.87244 14.25 5.79061C14.1635 5.70878 14.1202 5.58845 14.1202 5.4296V3.84116C14.1202 3.2154 13.9976 2.6787 13.7524 2.23105C13.512 1.78339 13.1851 1.44164 12.7716 1.20578C12.363 0.965102 11.9038 0.844765 11.3942 0.844765C10.8846 0.844765 10.4255 0.965102 10.0168 1.20578C9.60817 1.44164 9.28125 1.78339 9.03606 2.23105C8.79567 2.6787 8.67548 3.2154 8.67548 3.84116V6.0361H7.79567Z" fill="white" fill-opacity="0.7"/>
</svg>
