<svg width="12" height="12" viewBox="0 0 12 12" fill="none" xmlns="http://www.w3.org/2000/svg">
<path d="M2.18213 11.951C1.49658 11.951 0.97819 11.7754 0.626953 11.4242C0.275716 11.0772 0.100098 10.5651 0.100098 9.88806V2.16296C0.100098 1.48165 0.275716 0.967489 0.626953 0.620483C0.97819 0.273478 1.49658 0.0999756 2.18213 0.0999756H9.86914C10.5547 0.0999756 11.0731 0.273478 11.4243 0.620483C11.7756 0.967489 11.9512 1.48165 11.9512 2.16296V9.88806C11.9512 10.5651 11.7756 11.0772 11.4243 11.4242C11.0731 11.7754 10.5547 11.951 9.86914 11.951H2.18213ZM3.11523 6.30798C3.11523 6.85388 3.24642 7.35111 3.50879 7.79968C3.77116 8.24825 4.1224 8.60583 4.5625 8.87244C5.00684 9.13481 5.49984 9.26599 6.0415 9.26599C6.57894 9.26599 7.06771 9.13481 7.50781 8.87244C7.95215 8.60583 8.3055 8.25037 8.56787 7.80603C8.83447 7.36169 8.96777 6.87081 8.96777 6.33337C8.96777 6.19373 8.91699 6.07735 8.81543 5.98425C8.7181 5.88692 8.60173 5.83826 8.46631 5.83826C8.32666 5.83826 8.20817 5.88692 8.11084 5.98425C8.01351 6.07735 7.96484 6.19373 7.96484 6.33337C7.96484 6.69307 7.87809 7.01892 7.70459 7.31091C7.53532 7.59867 7.30469 7.82931 7.0127 8.00281C6.7207 8.17631 6.39697 8.26306 6.0415 8.26306C5.68604 8.26306 5.3623 8.17631 5.07031 8.00281C4.77832 7.82931 4.54557 7.59656 4.37207 7.30457C4.2028 7.01257 4.11816 6.68884 4.11816 6.33337C4.11816 5.9906 4.19645 5.67957 4.35303 5.40027C4.51383 5.11674 4.72965 4.89034 5.00049 4.72107C5.27132 4.54757 5.57178 4.45658 5.90186 4.44812C5.98649 4.44389 6.05843 4.44177 6.11768 4.44177L5.59082 4.97498C5.51465 5.05538 5.47656 5.15483 5.47656 5.27332C5.47656 5.40873 5.521 5.51876 5.60986 5.60339C5.69873 5.68803 5.80876 5.73035 5.93994 5.73035C6.06266 5.73035 6.17057 5.6838 6.26367 5.5907L7.50146 4.34656C7.59456 4.26192 7.639 4.1519 7.63477 4.01648C7.63477 3.88106 7.59033 3.76892 7.50146 3.68005L6.27637 2.42957C6.23405 2.38725 6.18327 2.35128 6.12402 2.32166C6.06478 2.29203 6.0013 2.27722 5.93359 2.27722C5.79818 2.27722 5.68815 2.32377 5.60352 2.41687C5.51888 2.50574 5.47656 2.60942 5.47656 2.72791C5.47656 2.79561 5.48714 2.85697 5.5083 2.91199C5.53369 2.96277 5.56331 3.00932 5.59717 3.05164L5.98438 3.45154C5.96322 3.44731 5.93783 3.44519 5.9082 3.44519C5.87858 3.44096 5.84896 3.44096 5.81934 3.44519C5.34115 3.45789 4.89469 3.5933 4.47998 3.85144C4.0695 4.10958 3.73942 4.45447 3.48975 4.88611C3.24007 5.31352 3.11523 5.78748 3.11523 6.30798Z" fill="#12A3FF"/>
</svg>
