<svg width="10" height="10" viewBox="0 0 10 10" fill="none" xmlns="http://www.w3.org/2000/svg">
<path d="M2.03613 9.97656C1.52507 9.97656 1.14095 9.84961 0.883789 9.5957C0.629883 9.34505 0.50293 8.96745 0.50293 8.46289V2.50098C0.50293 1.99642 0.629883 1.61882 0.883789 1.36816C1.14095 1.11426 1.52507 0.987305 2.03613 0.987305H7.95898C8.47005 0.987305 8.85254 1.11426 9.10645 1.36816C9.36361 1.61882 9.49219 1.99642 9.49219 2.50098V8.46289C9.49219 8.96745 9.36361 9.34505 9.10645 9.5957C8.85254 9.84961 8.47005 9.97656 7.95898 9.97656H2.03613ZM2.0459 9.19043H7.94922C8.1901 9.19043 8.37565 9.12695 8.50586 9C8.63932 8.86979 8.70605 8.67773 8.70605 8.42383V2.54004C8.70605 2.28613 8.63932 2.0957 8.50586 1.96875C8.37565 1.83854 8.1901 1.77344 7.94922 1.77344H2.0459C1.80176 1.77344 1.61458 1.83854 1.48438 1.96875C1.35417 2.0957 1.28906 2.28613 1.28906 2.54004V8.42383C1.28906 8.67773 1.35417 8.86979 1.48438 9C1.61458 9.12695 1.80176 9.19043 2.0459 9.19043ZM4.0918 7.38379C4.01693 7.42936 3.94206 7.44889 3.86719 7.44238C3.79232 7.43587 3.72884 7.40983 3.67676 7.36426C3.62793 7.31543 3.60352 7.25195 3.60352 7.17383V3.78027C3.60352 3.70215 3.62956 3.6403 3.68164 3.59473C3.73372 3.54915 3.7972 3.52474 3.87207 3.52148C3.9502 3.51497 4.02344 3.53125 4.0918 3.57031L6.875 5.2207C6.9401 5.25977 6.98405 5.31348 7.00684 5.38184C7.02962 5.44694 7.02962 5.51367 7.00684 5.58203C6.9873 5.64714 6.94336 5.70085 6.875 5.74316L4.0918 7.38379Z" fill="black" fill-opacity="0.85"/>
</svg>
