<?xml version="1.0" encoding="utf-8"?>
<!-- Generator: Adobe Illustrator 25.0.1, SVG Export Plug-In . SVG Version: 6.00 Build 0)  -->
<svg version="1.1" id="图层_1" xmlns="http://www.w3.org/2000/svg" xmlns:xlink="http://www.w3.org/1999/xlink" x="0px" y="0px"
	 viewBox="0 0 20 20" enable-background="new 0 0 20 20" xml:space="preserve">
<path fill="#12A3FF" d="M4.5,18.5c-1,0-1.7-0.3-2.2-0.8c-0.5-0.5-0.8-1.2-0.8-2.2V4.5c0-1,0.3-1.7,0.8-2.2s1.2-0.7,2.2-0.7h11
	c1,0,1.7,0.2,2.2,0.7c0.5,0.5,0.8,1.2,0.8,2.2v11.1c0,1-0.3,1.7-0.8,2.2c-0.5,0.5-1.2,0.8-2.2,0.8H4.5z M6.2,13.7H11
	c0.5,0,0.9-0.1,1.1-0.4c0.3-0.3,0.4-0.6,0.4-1.1V7.7c0-0.5-0.1-0.8-0.4-1.1c-0.2-0.3-0.6-0.4-1.1-0.4H6.2c-0.5,0-0.8,0.1-1.1,0.4
	C4.8,6.9,4.7,7.3,4.7,7.7v4.5c0,0.5,0.1,0.8,0.4,1.1C5.4,13.6,5.7,13.7,6.2,13.7z M13.1,11.3l1.7,1.4c0.1,0.1,0.2,0.1,0.3,0.2
	c0.1,0,0.2,0.1,0.3,0.1c0.2,0,0.3-0.1,0.4-0.2c0.1-0.1,0.2-0.3,0.2-0.5V7.6c0-0.2-0.1-0.4-0.2-0.5C15.7,7,15.5,7,15.3,7
	C15.2,7,15.1,7,15,7c-0.1,0-0.2,0.1-0.3,0.2l-1.7,1.4V11.3z"/>
</svg>
