<?xml version="1.0" encoding="utf-8"?>
<!-- Generator: Adobe Illustrator 25.0.1, SVG Export Plug-In . SVG Version: 6.00 Build 0)  -->
<svg version="1.1" id="图层_1" xmlns="http://www.w3.org/2000/svg" xmlns:xlink="http://www.w3.org/1999/xlink" x="0px" y="0px"
	 viewBox="0 0 20 20" enable-background="new 0 0 20 20" xml:space="preserve">
<path fill="#12A3FF" d="M4.4,18.5c-1,0-1.7-0.2-2.2-0.7c-0.5-0.5-0.7-1.2-0.7-2.2V4.4c0-1,0.2-1.7,0.7-2.2c0.5-0.5,1.2-0.7,2.2-0.7
	h11.1c1,0,1.7,0.2,2.2,0.7c0.5,0.5,0.7,1.2,0.7,2.2v11.2c0,1-0.2,1.7-0.7,2.2c-0.5,0.5-1.2,0.7-2.2,0.7H4.4z M8.3,13.7l5.3-3.1
	c0.1-0.1,0.2-0.2,0.3-0.3c0.1-0.1,0.1-0.3,0-0.4c-0.1-0.1-0.1-0.3-0.3-0.3L8.3,6.3C8.2,6.2,8,6.2,7.9,6.2c-0.2,0-0.3,0.1-0.4,0.2
	C7.3,6.4,7.3,6.6,7.3,6.7v6.5c0,0.2,0.1,0.3,0.2,0.4c0.1,0.1,0.2,0.2,0.4,0.2C8,13.9,8.2,13.8,8.3,13.7z"/>
</svg>
