<svg width="12" height="12" viewBox="0 0 12 12" fill="none" xmlns="http://www.w3.org/2000/svg">
<path d="M2.18213 11.951C1.49658 11.951 0.97819 11.7754 0.626953 11.4242C0.275716 11.0772 0.100098 10.5651 0.100098 9.88806V2.16296C0.100098 1.48165 0.275716 0.967489 0.626953 0.620483C0.97819 0.273478 1.49658 0.0999756 2.18213 0.0999756H9.86914C10.5547 0.0999756 11.0731 0.273478 11.4243 0.620483C11.7756 0.967489 11.9512 1.48165 11.9512 2.16296V9.88806C11.9512 10.5651 11.7756 11.0772 11.4243 11.4242C11.0731 11.7754 10.5547 11.951 9.86914 11.951H2.18213ZM2.2583 10.7006H9.79297C10.085 10.7006 10.3092 10.6244 10.4658 10.472C10.6224 10.3197 10.7007 10.0891 10.7007 9.78015V2.26453C10.7007 1.95984 10.6224 1.73132 10.4658 1.57898C10.3092 1.42664 10.085 1.35046 9.79297 1.35046H2.2583C1.96208 1.35046 1.73568 1.42664 1.5791 1.57898C1.42676 1.73132 1.35059 1.95984 1.35059 2.26453V9.78015C1.35059 10.0891 1.42676 10.3197 1.5791 10.472C1.73568 10.6244 1.96208 10.7006 2.2583 10.7006ZM3.2168 6.29529C3.2168 5.79171 3.3374 5.33468 3.57861 4.92419C3.81982 4.50948 4.13721 4.1794 4.53076 3.93396C4.92855 3.68429 5.36019 3.55098 5.82568 3.53406C5.85107 3.53406 5.87858 3.53617 5.9082 3.54041C5.93783 3.54041 5.96322 3.54041 5.98438 3.54041L5.60352 3.15955C5.57389 3.11723 5.54639 3.07068 5.521 3.0199C5.49984 2.96912 5.48926 2.91199 5.48926 2.84851C5.48926 2.73425 5.52946 2.63481 5.60986 2.55017C5.69027 2.4613 5.79606 2.41687 5.92725 2.41687C5.99072 2.41687 6.04997 2.43168 6.10498 2.4613C6.16423 2.48669 6.21289 2.52055 6.25098 2.56287L7.43799 3.76892C7.51839 3.85356 7.55859 3.95935 7.55859 4.0863C7.56283 4.21326 7.52262 4.31905 7.43799 4.40369L6.24463 5.60339C6.15576 5.69226 6.05208 5.73669 5.93359 5.73669C5.80664 5.73669 5.70085 5.69649 5.61621 5.61609C5.53581 5.53145 5.49561 5.42566 5.49561 5.29871C5.49561 5.18445 5.53158 5.08712 5.60352 5.00671L6.11768 4.4989C6.05843 4.49467 5.98649 4.49467 5.90186 4.4989C5.58024 4.50736 5.28825 4.59412 5.02588 4.75916C4.76351 4.91996 4.55615 5.1379 4.40381 5.41296C4.25146 5.68803 4.17529 5.98848 4.17529 6.31433C4.17529 6.66134 4.25781 6.9766 4.42285 7.26013C4.58789 7.53943 4.81006 7.76371 5.08936 7.93298C5.37288 8.09802 5.68604 8.18054 6.02881 8.18054C6.37581 8.18054 6.68896 8.09802 6.96826 7.93298C7.24756 7.76371 7.46973 7.53943 7.63477 7.26013C7.80404 6.9766 7.88867 6.66134 7.88867 6.31433C7.88867 6.18738 7.93522 6.07735 8.02832 5.98425C8.12565 5.89115 8.23779 5.8446 8.36475 5.8446C8.49593 5.8446 8.60807 5.89115 8.70117 5.98425C8.7985 6.07735 8.84717 6.18738 8.84717 6.31433C8.84717 6.83484 8.72021 7.3088 8.46631 7.73621C8.2124 8.16362 7.87174 8.50427 7.44434 8.75818C7.02116 9.01208 6.54932 9.13904 6.02881 9.13904C5.5083 9.13904 5.03434 9.01208 4.60693 8.75818C4.18376 8.50427 3.84521 8.16362 3.59131 7.73621C3.34163 7.30457 3.2168 6.82426 3.2168 6.29529Z" fill="#12A3FF"/>
</svg>
